<?xml version="1.0" encoding="utf-8"?>
<!-- Generator: Adobe Illustrator 26.2.1, SVG Export Plug-In . SVG Version: 6.00 Build 0)  -->
<svg version="1.1" id="Layer_1" xmlns="http://www.w3.org/2000/svg" xmlns:xlink="http://www.w3.org/1999/xlink" x="0px" y="0px"
	 viewBox="0 0 1024 1024" style="enable-background:new 0 0 1024 1024;" xml:space="preserve">
<g id="icomoon-ignore">
</g>
<path d="M907.1,598.4c-22.9,40.7-60.6,70.8-105.9,84c-8.7,2.5-17.3,4.1-26,5.1c-32.1,3.6-62.6-0.5-91.6-12.7
	c-6.1-2.5-11.7-5.1-16.8-8.1c-12.7-7.1-33.6-20.4-59-35.1c38.7-62.6,118.1-187.3,140.5-228.5c12.2-20.9,21.4-43.3,27-66.2
	c21.9,2,43.8,9.2,63.6,20.4c41.2,23.4,71.3,61.6,84,106.9C935.1,509.9,930,557.2,907.1,598.4L907.1,598.4z M666.4,839.2
	c-23.4,40.7-60.1,70.8-105.9,84c-45.3,12.2-93.1,7.1-134.4-15.8c-41.7-23.4-71.3-60.6-84.5-106.4c-2.5-8.1-4.1-16.8-4.6-26
	c-4.1-31.6,0.5-62.6,12.2-91.6c2.5-5.6,5.1-11.2,8.1-16.8c7.6-12.7,19.9-33.6,35.1-58.5c62.1,38.7,186.8,118.1,228.5,140.5
	c20.4,11.7,43.3,20.9,66.7,26.5C684.7,797,677.6,818.8,666.4,839.2L666.4,839.2z M275,621.4c-11.7,20.4-19.9,43.3-24.9,66.2
	c-22.4-2.5-43.8-9.7-64.6-20.9c-41.2-23.9-71.3-60.6-83.5-106.4c-13.2-44.8-7.6-93.1,14.8-134.4c23.4-41.2,60.6-71.3,106.9-84.5
	c8.7-2.5,17.3-4.1,26.5-4.6c30-4.1,62.1,0.5,90.6,12.2c5.6,2.5,11.2,5.1,16.8,8.1c12.7,7.6,34.1,19.9,59,35.6
	C376.7,454.4,298.4,579.6,275,621.4L275,621.4z M580.9,512.4c0,38.2-30,68.7-68.2,68.7s-70.2-30.5-70.2-68.7s31.6-70.2,70.2-70.2
	S580.9,473.7,580.9,512.4z M357.4,185.1c23.4-41.2,61.6-71.3,106.9-83.5c45.3-13.2,92.6-7.6,134.4,15.3
	c40.2,22.9,70.8,60.1,83.5,106.4c2.5,8.7,4.1,17.8,5.6,26.5c3.1,30-0.5,62.1-12.7,90.6c-2.5,5.6-5.1,11.2-8.1,16.8
	c-7.1,12.7-20.4,34.1-35.1,59c-62.6-39.2-187.3-118.1-228-141.5C382.3,263,360,254.9,337,249.8C339.1,227.4,346.2,206,357.4,185.1
	L357.4,185.1z M1014,437.6c-20.4-68.7-65.7-126.7-129.3-162.9c-32.6-17.3-67.2-28-102.8-31.6c-2-15.3-4.6-30.5-8.7-45.3
	C752.9,128.1,707.1,70.1,643.5,35C580.9-1.2,508.1-9.3,437.8,10.6c-68.7,19.9-126.7,65.7-162.9,128.8c-17.3,32.1-28,68.2-31.6,103.8
	c-15.3,1.5-30.5,4.6-45.3,8.1c-69.7,19.3-127.8,65.2-162.9,128.8C-0.9,442.7-9.6,517,10.8,585.2c19.9,70.2,65.7,128.3,128.8,163.4
	c32.1,18.3,68.2,29.5,103.8,33.6c1.5,14.3,4.6,29.5,8.1,44.8c19.3,69.7,65.2,126.7,128.8,162.4c62.6,35.6,136.4,43.8,205.1,24.4
	c70.2-20.4,128.3-65.7,162.9-129.3c18.3-32.6,30-67.2,33.6-102.8c14.8-1.5,30-4.1,44.8-8.7c70.2-20.4,127.2-66.2,162.4-129.3
	C1025.2,580.6,1032.8,508.4,1014,437.6L1014,437.6z"/>
</svg>
