<?xml version="1.0" standalone="no"?>
<!DOCTYPE svg PUBLIC "-//W3C//DTD SVG 1.1//EN" "http://www.w3.org/Graphics/SVG/1.1/DTD/svg11.dtd" >
<svg xmlns="http://www.w3.org/2000/svg">
<metadata></metadata>
<defs>
<font id="commcarehq_fontregular" horiz-adv-x="2046" >
<font-face units-per-em="2048" ascent="1755" descent="-293" />
<missing-glyph horiz-adv-x="685" />
<glyph horiz-adv-x="0" />
<glyph horiz-adv-x="0" />
<glyph unicode="&#xd;" horiz-adv-x="682" />
<glyph unicode=" "  horiz-adv-x="685" />
<glyph unicode="&#x09;" horiz-adv-x="685" />
<glyph unicode="&#xa0;" horiz-adv-x="685" />
<glyph unicode="&#x25fc;" horiz-adv-x="500" d="M0 0z" />
<glyph unicode="&#xf000;" horiz-adv-x="2042" d="M262 1465q18 2 45 20q7 4 15.5 9l8.5 5q32 27 60 69q29 60 33 85q0 64 -27 109q-21 41 -52 60q-35 32 -83 41q-8 3 -17 3q-5 0 -19 -2l-7 -1q-70 0 -123 -41q-31 -20 -56 -54q-33 -61 -32 -121.5t31 -103.5q19 -36 59 -55q38 -32 77 -34q48 -5 87 11zM1641 1607 q14 -48 34 -68q12 -22 33 -39q3 -4 20 -17q12 -10 18 -16q33 -21 86 -21q28 -12 51 0q30 3 56 16q51 44 63 56q24 35 39 89v38q0 113 -97 174q-51 44 -126 39q-68 -9 -96 -36q-44 -20 -57 -56q-53 -69 -24 -159zM270 1082q52 -73 143 -143q50 -18 105 5t83 72t14 103 q-93 19 -136 35q-13 5 -29 13q-52 89 -2 193q20 27 47 36q30 7 54.5 3.5t65.5 -18.5q87 -31 178 -118q35 -32 78 -78q51 -56 107 -169q66 -130 73 -142q4 24 4 65q0 54 -11 125q0 1 -1.5 9.5t-4 21.5t-4.5 28q-1 5 -13 63q-39 207 -185.5 369t-342.5 213q0 -75 -4 -118 q-14 -143 -106 -204q-47 -44 -113 -44q0 -2 -8 -2h-9q-36 0 -76 4q-51 3 -73 3q65 -189 149 -310q9 -1 9 -4zM1256 1597q-90 -66 -137 -143q-20 -55 1 -108q22 -55 72.5 -82.5t108.5 -9.5q4 91 44 160q44 26 97 26q52 0 93 -26q49 -18 39 -59q0 -52 -15.5 -100t-47 -93 t-66.5 -82t-85 -83q-50 -48 -162 -102q-118 -58 -147 -79q44 -4 108 -4q116 0 283 55q74 24 150.5 66.5t137.5 95.5q161 143 214 338q-56 1 -96.5 4.5t-86.5 15t-82 35.5t-61 61q-37 37 -41 114v19q0 34 4 73t4 73q-205 -83 -310 -151l-6 -4zM782 94q82 59 143 139 q20 54 -1 109t-72.5 83t-108.5 12q-4 -36 -10 -69q-12 -50 -20 -64q-10 -16 -19 -26q-40 -29 -95 -31q-54 -1 -96 27.5t-32 56.5q0 97 52 179q109 178 326 287q109 54 144 77l-35 3q-30 3 -58 3q-26 0 -66 -6q-87 -15 -156 -31q-206 -40 -364.5 -183t-217.5 -345 q98 0 177 -14q87 -17 137.5 -78.5t53.5 -128.5v-19l-2 -73q-3 -49 -3 -75q183 66 308 155q6 0 11 5zM1774 605q-59 89 -144 144q-55 19 -109 -3q-55 -22 -82.5 -74.5t-11.5 -109.5q68 -4 107 -18q31 -11 53 -26q26 -42 26.5 -96.5t-24.5 -100.5q-7 -13 -25 -23t-35 -8 q-49 0 -96.5 16.5t-92.5 48t-82.5 66t-82.5 83.5q-55 57 -129 210q-27 58 -53 102q-5 -35 -5 -78q0 -40 6 -80l6 -42q1 -4 5 -24l2 -14l7 -41l7 -38q43 -208 185.5 -366t336.5 -212q9 149 29.5 213.5t82.5 110.5q49 40 119 44h13q14 0 77 -5q62 -5 75 -5q-80 208 -152 308 q-8 5 -8 10zM397 87q-5 20 -18 43t-36.5 46t-51.5 34q-33 26 -77 35q-38 0 -54 -6q-22 -2 -56 -20q-51 -34 -72.5 -62t-26.5 -70l-5 -45q0 -60 39 -119q23 -41 74.5 -68.5t117.5 -21.5q28 2 89 24q33 30 59 66q24 49 26 71q8 37 -8 93zM1779 219l-32 -14q-10 -5 -22 -9 q-14 -6 -15 -7q-57 -60 -72.5 -86.5t-15.5 -68.5q-7 -52 19 -107q14 -24 52 -62q47 -30 86 -36q13 -7 39 -7h9q52 0 117 35q24 21 47 49q18 23 31 62t10 82q-3 50 -29 92.5t-61 57.5q-30 24 -72 29q-35 7 -91 -10z" />
<glyph unicode="&#xf001;" d="M696 1368q0 40 -6 189h-157q-35 0 -63.5 -11.5t-41.5 -27.5q-5 -5 -10 -12q-12 -14 -15 -17q-38 -44 -137 -252l-23 -69h-243v763h2047v-763h-225l-25 69q-40 90 -72.5 151t-74.5 115q-14 18 -43.5 34.5t-67.5 19.5h-176q-12 -129 -12 -189v-901q0 -96 24 -139 q18 -32 31.5 -47t42.5 -33q35 -22 127 -64l142 -41v-260h-1379v260l133 41q70 33 110 55q14 8 24 15q8 5 17 12q7 4 12 12q2 2 4 4.5l2 2.5q4 3 14 16q6 6 10 13q15 24 26 83q5 38 5 70v901z" />
<glyph unicode="&#xf002;" horiz-adv-x="1696" d="M662 342v1025q-49 -31 -115 -68l-100 -57q-50 -27 -90.5 -35t-127.5 -8v416q285 116 497 316h412v-1589h329v-459h-1238v459h433z" />
<glyph unicode="&#xf003;" horiz-adv-x="2752" d="M1182 -34v539q0 37 -30 72q-11 37 -69 66l-194 146q-33 23 -102 43q-37 9 -58 17q-49 15 -57 17q6 1 115 32q47 11 102 40l194 123q58 28 69 60q6 8 11.5 21t9.5 27t6.5 29t2.5 27v545l-1182 -794v-223zM1577 1770v-545q0 -69 23 -104q28 -36 70 -60l196 -123 q55 -29 102 -40q60 -20 115 -32q-6 -1 -57 -17q-20 -7 -58 -17q-69 -20 -102 -43l-196 -146q-41 -22 -67 -60t-26 -78v-539l1175 787v223z" />
<glyph unicode="&#xf004;" horiz-adv-x="2232" d="M1290 1281l49 -18q41 -16 57.5 -33t23.5 -51q7 -29 7 -109v-630v-18v-44.5t-2 -40.5t-6 -40t-12 -29.5t-20 -22.5t-48 -23l-49 -21v-10h326v136h3q66 -159 250 -159q106 0 189 52.5t128.5 143.5t45.5 204q0 192 -95.5 301t-263.5 109q-82 0 -152 -44t-97 -113h-5v470 h-329v-10zM243 608q-243 -42 -243 -224q0 -101 67 -158.5t179 -57.5q75 0 143.5 37t108.5 99q9 -62 44.5 -99t90.5 -37q136 0 186 131l-12 5q-12 -17 -30 -29t-34 -12q-60 0 -60 99v390q0 98 -59 151.5t-162 68.5q-40 6 -87 6q-113 0 -185 -25q-45 -16 -74 -42 q-66 -61 -66 -174h196q-13 29 -13 61q0 17 6.5 35t20 36.5t40.5 30t62 11.5q59 0 93.5 -36.5t34.5 -100.5v-121zM984 751h-209v-121h209v-231h121v231h208v121h-208v219h-121v-219zM1813 272q-98 0 -148 75t-50 219q0 58 8.5 107t25.5 86t41 63t55 39t68 13q96 0 146 -77.5 t50 -230.5q0 -90 -23 -156t-67 -102t-106 -36zM490 441q0 -22 -4.5 -42t-12.5 -36.5t-19 -31t-25 -25.5t-29.5 -18.5t-33 -11.5t-35.5 -4q-57 0 -91.5 36.5t-34.5 96.5q0 61 34.5 102t99.5 52l151 26v-144z" />
<glyph unicode="&#xf005;" horiz-adv-x="2084" d="M0 1360q0 -72 93 -72h3q8 0 50 5q31 16 43 72q17 70 72 113q54 45 147 45q187 0 285 -125q3 -3 24 -43l186 -368q-21 -23 -86 -120l-626 -849q-21 -52 -21 -76q0 -43 134 -43h159q66 0 107 53q232 326 295 416q126 181 162 225l21 30q5 8 33 47q96 -245 133 -326 q7 -14 45 -111q40 -104 59.5 -142.5t60.5 -91.5q92 -116 242 -116q228 0 344 183q120 181 120 391q0 70 -96 70q-33 0 -54 -10q-26 -12 -38 -68q-16 -67 -80 -111q-63 -48 -166 -48q-202 0 -310 126q0 1 -1 3t-1 3l-21 38q-8 14 -30 60l-40 76l-101 193q19 11 98 126 l627 883q43 49 43 74q0 43 -137 43h-165q-77 0 -122 -53q-213 -299 -343 -502q-45 -68 -94 -148q-44 -71 -51 -81q-127 256 -171 348q-27 47 -55 108q-50 112 -60 127q-70 157 -143 190q-48 27 -109 27q-154 0 -265 -99q-103 -88 -151.5 -212t-48.5 -260z" />
<glyph unicode="&#xf006;" horiz-adv-x="2460" d="M406 1777q110 0 203.5 -54.5t147.5 -148.5t54 -204q0 -111 -54 -204.5t-147.5 -148t-203.5 -54.5t-203.5 54.5t-148 148.5t-54.5 204t54.5 204t148 148.5t203.5 54.5zM2461 1325q0 -84 -60 -143.5t-144 -59.5h-967q-84 0 -143.5 59.5t-59.5 143.5v88q0 41 16 78.5 t43.5 65t65 43.5t78.5 16h967q84 0 144 -59.5t60 -143.5v-88zM545 1506q-59 56 -139 56q-82 0 -139.5 -56t-57.5 -136q0 -81 57.5 -138.5t139.5 -57.5q81 0 138 57.5t57 138.5q0 80 -56 136zM406 651q110 0 203.5 -54.5t147.5 -148t54 -203.5q0 -111 -54 -204.5t-147.5 -148 t-203.5 -54.5q-111 0 -203 55q-94 54 -148.5 147.5t-54.5 204.5q0 82 32.5 157.5t87 130t129.5 86.5t157 32zM2461 198q0 -84 -60 -142.5t-144 -58.5h-967q-84 0 -143.5 58.5t-59.5 142.5v91q0 83 59.5 142.5t143.5 59.5h967q84 0 144 -59.5t60 -142.5v-91z" />
<glyph unicode="&#xf007;" horiz-adv-x="2459" d="M613 1774q84 0 143.5 -60t59.5 -144v-403q0 -84 -59 -143t-144 -59h-412q-83 0 -142 59t-59 143v403q0 84 59 144t142 60h412zM2459 1325q0 -84 -59.5 -143.5t-143.5 -59.5h-967q-84 0 -143.5 59.5t-59.5 143.5v88q0 84 59.5 143.5t143.5 59.5h967q84 0 143.5 -59.5 t59.5 -143.5v-88zM210 1561v-385h396v385h-396zM613 649q84 0 143.5 -59t59.5 -143v-407q0 -84 -59 -142.5t-144 -58.5h-412q-83 0 -142 58.5t-59 142.5v407q0 83 59 142.5t142 59.5h412zM2459 198q0 -84 -59.5 -142.5t-143.5 -58.5h-967q-84 0 -143.5 58.5t-59.5 142.5v91 q0 55 27 101.5t74 73.5t102 27h967q84 0 143.5 -59.5t59.5 -142.5v-91zM210 439v-390h396v390h-396z" />
<glyph unicode="&#xf008;" horiz-adv-x="2052" d="M651 854q0 -94 18 -233q2 -20 11 -107q12 -133 107 -313q80 -138 215 -232q139 -87 345 -87q200 0 341.5 83.5t221.5 235.5q85 143 109 313q34 177 34 340q0 156 -34 344q-26 171 -109 312q-73 142 -213 229q-134 90 -350 90q-376 0 -560 -319q-72 -128 -107 -312 q-29 -200 -29 -344zM1048 854q0 42 6 176q17 243 124 367q56 66 169 66q196 0 264 -228q42 -153 42 -381q0 -225 -42 -379q-67 -226 -264 -226q-190 0 -257 226q-28 106 -36 199q-6 142 -6 180zM0 142q0 -47 18 -96q26 -50 52 -79q32 -31 79.5 -50.5t95.5 -19.5q46 0 95 21 q98 41 129 128q20 43 20 96t-20 96q-16 45 -52 76q-71 71 -172 71q-61 0 -95 -18q-46 -21 -75.5 -49.5t-56.5 -79.5q-18 -51 -18 -96z" />
<glyph unicode="&#xf009;" horiz-adv-x="3094" d="M417 631h265v1300h-258l-424 -357l157 -181l260 230v-992zM1826 519h-577l394 340q44 40 69 68q43 53 58 82q18 33 31.5 86t13.5 113q0 93 -32 171q-32 74 -89.5 123.5t-134.5 71.5q-81 26 -165 26q-91 0 -177 -26q-163 -46 -241 -198q-37 -78 -41 -175l275 -20 q6 72 49.5 118.5t119.5 46.5q65 0 112 -39q48 -38 48 -102q0 -58 -36 -101q-32 -38 -80 -81l-505 -454v-292h908v242zM2426 337q95 -2 143 -62q22 -31 22 -84q0 -79 -44.5 -123t-131.5 -44q-90 0 -133 40q-46 39 -60 111l-291 -69q41 -176 167 -255q123 -81 300 -81 q207 0 331 96q62 47 102 123q35 78 35 171q0 112 -64 200q-67 85 -180 103v6q106 21 165 98q58 79 58 186q0 179 -133 273q-60 48 -139 67q-75 22 -167 22q-88 0 -157 -18q-155 -35 -240 -151q-45 -59 -66 -144l303 -61q13 53 56.5 87t104.5 34q68 0 115 -39t47 -97 q0 -89 -66 -119q-35 -16 -64.5 -21t-78.5 -5h-90v-239h64z" />
<glyph unicode="&#xf00a;" horiz-adv-x="2442" d="M765 252q34 -100 61 -147l17 -30h-704q-58 0 -98.5 41t-40.5 99v1392q0 58 40.5 98.5t98.5 40.5h139v104q0 72 51.5 123.5t123.5 51.5h69q47 0 87 -23.5t63.5 -64t23.5 -87.5v-104h418v104q0 72 51 123.5t123 51.5h70q72 0 122.5 -51.5t50.5 -123.5v-104h140 q58 0 98.5 -40.5t40.5 -98.5v-175l-33 8q-17 4 -52.5 8t-81.5 6t-83 1q-75 -3 -167.5 -25t-170.5 -58q-25 -11 -80 -44h-203v-169l19 18q-37 -39 -88 -104v255h-348v-313h309q-24 -40 -39 -70h-270v-347h184l5 39q-3 -63 2 -143l-7 34h-184v-313h251zM417 1537 q0 -13 11 -23.5t25 -10.5h69q14 0 24.5 10.5t10.5 23.5v313q0 14 -10.5 25t-24.5 11h-69q-14 0 -25 -11t-11 -25v-313zM1253 1537q0 -13 10.5 -23.5t24.5 -10.5h70q14 0 24 10.5t10 23.5v313q0 6 -2 11t-5 9.5t-7.5 8t-9.5 5.5t-10 2h-70q-14 0 -24.5 -11t-10.5 -25v-313z M2377 877q65 -156 65 -323q0 -225 -111.5 -418.5t-304.5 -305.5q-190 -112 -419 -112q-226 0 -419 111.5t-305 305.5q-112 190 -112 419q0 167 64.5 321.5t179.5 269.5t270.5 180t321.5 65t322 -65q155 -66 269 -180t179 -268zM139 1328v-313h314v313h-314zM1042 1255 q38 33 100 73h3zM1042 1255l-17 -14l10 9zM958 1177q33 34 67 64zM2120 340q43 102 43 214q0 150 -74 278.5t-203 203.5t-279 75t-279 -74.5t-204 -203.5t-75 -279t75 -278.5t204 -203.5q128 -75 279 -75q110 0 215 44q103 44 179 120t119 179zM831 1015q14 24 39 58 l-37 -58h-2zM1920 554q13 0 23.5 -10.5t10.5 -24.5v-70q0 -13 -10 -23.5t-24 -10.5h-418q-14 0 -24.5 10.5t-10.5 23.5v488q0 13 10.5 23.5t24.5 10.5h69q14 0 25 -10.5t11 -23.5v-383h313zM139 945v-347h314v347h-314zM729 771q19 83 63 174h3zM713 667q3 55 16 102 l-18 -132zM139 528v-313h314v313h-314zM765 252q-11 32 -21 66q-24 78 -31 176z" />
<glyph unicode="&#xf00b;" horiz-adv-x="2161" d="M2091 1215q70 121 70 264q0 144 -70 265q-46 81 -116.5 140t-158 90.5t-182.5 31.5q-105 0 -201.5 -40.5t-169.5 -113.5t-113.5 -171t-40.5 -202t40.5 -201.5t113.5 -170.5t170 -113.5t201 -40.5q141 0 263 70.5t194 191.5zM1578 805q-11 -2 -30 0q-27 0 -83 10 q-43 7 -76 16t-74.5 28t-85.5 47q-144 91 -212 235q-34 71 -45.5 167t4.5 161l6 29q-34 -56 -62 -100q-62 -98 -176 -259t-200 -266q-123 -152 -258.5 -293.5t-230.5 -229.5q-36 -33 -46 -48q-10 -13 -8.5 -35.5t14.5 -35.5q22 -25 94 -102q72 -76 99 -107q39 -46 101 -11 l88 65q552 398 1083 677z" />
<glyph unicode="&#xf00c;" horiz-adv-x="2425" d="M565 937q-263 -153 -414 -402.5t-151 -536.5h2425q0 291 -153 543t-417 402l226 359q25 32 16.5 72.5t-44.5 64.5q-36 20 -77 11t-65 -43l-242 -377q-212 79 -458 79q-250 0 -466 -84l-243 382q-23 34 -63 43t-77 -11q-36 -24 -44.5 -65t15.5 -72zM871 439 q-44 -42 -102 -42q-59 0 -101 41.5t-42 100.5q0 60 41.5 102t101.5 42q29 0 56 -11.5t46 -30.5t30.5 -46t11.5 -56q0 -58 -42 -100zM1656 397q-59 0 -101.5 42t-42.5 100q0 60 42.5 102t101.5 42q61 0 102.5 -41.5t41.5 -102.5q0 -59 -42 -100.5t-102 -41.5z" />
<glyph unicode="&#xf00d;" horiz-adv-x="2508" d="M2450 1814q31 -7 47.5 -36t8.5 -63l-410 -1488l-10 -36l-4 -14q-23 -35 -123 -162q-49 -62 -113 -151l-28 -33l-4 44q-13 114 -25 183q-8 84 -19 206v11l420 1527q7 30 36.5 48t62.5 12l13 -7l135 -36zM1792 -93q8 -18 14 -37l8 -39l-16 38q-25 55 -64 85q-20 18 -67 31 q-67 12 -205 -24q-88 -21 -104 -24q-96 -21 -186 -23.5t-137 9.5q-44 9 -118 34l-37 18l-40 23l-2 1.5t-3 2.5t-3 2.5l-2 1.5q-13 10 -23 12l-15 13l-19 16q-180 147 -95 371q16 41 45 88q38 62 102 144q5 6 50 64q142 162 184 249q13 22 22 51l-1 34h-2l2 1l-10 13l-2 6 l-4 4q-3 3 -6 3l-2 3q-2 0 -4 2q-1 1 -4 1q-38 9 -81 1q-56 -8 -117 -33q-95 -37 -249 -128.5t-289 -194.5q-16 -12 -34 -26l-20 -16t-21 -16q-7 -7 -11 -9l-31 -24l-195 252l38 25q39 29 97 66q230 146 363 213q263 126 443 143q132 6 217 -40l29 -17q9 -9 27 -23 q18 -10 44 -48l5 -8l6 -11h2v-2l4 -10l11 -17l7 -21q1 -3 2.5 -9.5t2.5 -9.5l6 -19l2 -18q9 -45 -3 -96.5t-39 -100.5t-58 -90.5t-68 -80.5q-45 -48 -120 -123q-40 -40 -61 -63t-38 -42.5t-41 -49.5q-94 -120 -76 -192q7 -50 60 -99q7 -10 7 -11l14 -10q3 -1 11 -9 q13 -14 21 -15l26 -19l27 -15q54 -34 123 -47q100 -23 253 -8q25 1 76 9q100 12 156 12q66 0 98 -13q42 -14 75 -45q27 -27 43 -66zM1064 1075l2 -3v3h-2zM2063 241q-15 16 -37 26l-13 2q-48 4 -70 -37l-4 -15l-26 7q4 4 4 15q1 22 -10 40t-30 26q-8 5 -12 5q-22 7 -49 -3 l-10 -38q0 -25 23 -220l92 -26q117 151 133 179z" />
<glyph unicode="&#xf00e;" horiz-adv-x="1698" d="M1352 -71q35 50 54 499.5t18 933.5l-1 441q0 48 -38.5 95.5t-80.5 47.5l-62 16q-39 9 -103 18t-143 16t-141 7q-103 0 -212 -13t-167 -30l-49 -14q-33 0 -69 -23t-60 -56.5t-24 -63.5q0 -44 1 -61q0 -64 8 -399q14 -743 39 -1130q6 -100 16 -187q8 -77 25 -109.5 t63 -62.5q66 -45 190 -60q47 -5 73 -5h272q80 0 184 22q65 12 120 43t87 75zM1282 785q0 -17 -13.5 -26.5t-35.5 -9.5h-769q-37 0 -37 36v958q0 35 37 35h769q22 0 35.5 -9t13.5 -26v-958zM843 678q59 0 108 -17q46 -18 46 -42q0 -18 -21.5 -34.5t-57 -26t-75.5 -9.5 q-62 0 -108 21t-46 49q0 26 46 42q48 17 108 17zM451 440q7 3 18 6q63 17 90 7q92 -20 105 -37q0 -18 -31.5 -32.5t-73.5 -14.5q-52 0 -93 32q-32 22 -15 39zM1139 453q55 7 101 -7l17 -6q10 -18 -33.5 -44.5t-84.5 -26.5q-57 0 -86 25q-14 11 -8 22q0 12 80 33l1 1h2l2 1z M855 429q40 0 67.5 -14.5t27.5 -33.5t-27.5 -33t-67.5 -14q-27 0 -52.5 6.5t-40.5 17.5t-15 23t15 23t40.5 18t52.5 7zM451 310q8 3 18 6q58 16 90 6q91 -20 105 -36q0 -12 -14.5 -22.5t-39 -17t-51.5 -6.5q-53 0 -94 32q-27 22 -14 38zM1139 322q56 8 101 -6l17 -6 q10 -18 -33 -44t-85 -26q-40 0 -71 15q-32 14 -23 31q0 11 77 32q4 0 17 4zM855 286q95 0 95 -36q0 -18 -27.5 -31.5t-67.5 -13.5q-29 0 -54 6t-39.5 16.5t-14.5 22.5q0 17 31 27q30 9 77 9zM469 189q17 8 45 13.5t45 2.5q77 -17 105 -50q0 -18 -31.5 -32t-73.5 -14 q-53 0 -94 32q-29 23 -14 38zM1139 205q23 3 52.5 -2.5t48.5 -14.5l17 -9q10 -18 -33 -44t-85 -26q-40 0 -71 15q-32 14 -23 31q0 10 29 25q27 15 65 25zM855 155q41 0 68 -13.5t27 -32.5q0 -36 -95 -36q-108 0 -108 36q0 18 32 32t76 14zM469 67q57 16 90 6q76 -13 105 -48 q0 -35 -105 -35q-51 0 -88 24t-20 48zM1139 73q56 8 101 -6l17 -5q9 -26 -30.5 -49t-87.5 -23q-42 0 -72 9q-31 9 -22 26q0 10 29 25q27 15 65 23zM855 25q41 0 68 -13.5t27 -32.5q0 -36 -95 -36q-108 0 -108 36q0 17 33 31.5t75 14.5z" />
<glyph unicode="&#xf00f;" horiz-adv-x="2746" d="M1469 1726l-824 75l-645 -571l758 -160zM1993 22q273 230 458 461q140 175 214.5 333.5t79.5 300.5t-72 253q-32 47 -76 87.5t-96.5 72t-110 58t-123 46t-128.5 35t-134 26.5t-133 18t-130 13l147 -365q416 -14 559.5 -182.5t20.5 -469.5q-121 -294 -476 -687zM1271 -16 l675 711l-375 977l-712 -666zM1862 50q79 68 156 149t156 183.5t141 205.5q83 143 98 287q6 68 -17.5 124t-78 100.5t-148.5 73.5t-223 37l103 -213q119 -20 161 -111t-1 -223q-79 -271 -347 -613zM1169 -90l-798 232l-371 956l758 -149z" />
<glyph unicode="&#xf010;" horiz-adv-x="2097" d="M1575 1949q141 0 262 -70t190.5 -191.5t69.5 -261.5v-1037q0 -141 -69 -262q-70 -122 -190 -191.5t-263 -69.5h-1060q-140 0 -258 70q-119 70 -188 191t-69 262v1037q0 139 69 261t188 192t258 70h1060zM541 1401v-991h1016v991h-1016z" />
<glyph unicode="&#xf011;" horiz-adv-x="2098" d="M1049 1959q288 0 530 -144q240 -143 379.5 -383t139.5 -525q0 -170 -53 -330.5t-150 -291.5q-205 -273 -515 -376q-164 -53 -331 -53q-208 0 -402.5 81.5t-338.5 225.5q-145 145 -226.5 340t-81.5 404q0 208 81.5 403.5t226.5 340.5t339.5 226.5t401.5 81.5zM1049 1403 q-138 0 -254 -65q-118 -66 -186 -181t-68 -250q0 -137 68 -253q68 -118 185.5 -186.5t254.5 -68.5q102 0 196 40t163 110q46 47 78.5 104t50 122t17.5 132q0 102 -39.5 194t-106.5 158t-161 105t-198 39z" />
<glyph unicode="&#xf012;" horiz-adv-x="1976" d="M1976 104h-1757v1826h-219v-2045h1976v219zM1907 1503v-474l-162 128l-462 -556l-381 301l-439 -509l-140 127l556 637l380 -301l348 405l-174 126z" />
<glyph unicode="&#xf013;" horiz-adv-x="1970" d="M1970 106h-1749v1824h-221v-2045h1970v221zM1423 234h414v1595h-414v-1595zM352 234h414v880h-414v-880zM893 234h425v523h-425v-523z" />
<glyph unicode="&#xf014;" horiz-adv-x="2466" d="M1001 993q-40 43 -77.5 111t-54.5 131q-30 113 -29 266q0 82 22 158.5t63 130.5q100 134 307 139l5 1l8 -1q209 -5 306 -139q40 -54 61.5 -128.5t23.5 -151.5t-5.5 -146.5t-23.5 -128.5q-10 -41 -31.5 -86.5t-47.5 -85.5t-54 -70q-36 -38 -37.5 -69t26.5 -97 q26 -69 64 -91q49 -28 295 -119q1 0 2 -1q199 -72 245 -103t77 -121q3 -9 6 -21.5t5.5 -29.5t4.5 -31.5t4 -38t3.5 -39t3.5 -43.5t2.5 -41.5t2.5 -44t3 -41.5l2 -48q-14 -13 -34 -22q-22 -12 -91 -32q-248 -75 -820 -75q-420 0 -666 39q-95 15 -162 36q-65 19 -87 31 q-15 7 -29 20q16 325 36 381q32 93 100 135q25 18 225 90q242 90 294 119q40 22 71.5 94.5t17.5 113.5q-6 14 -37 49zM798 1655l-12 -21l-23 1h-8q-10 -1 -34 -1q-49 -4 -65 -26l-29 -39q-37 -49 -50 -129q-7 -42 -8.5 -87.5t4 -93.5t20 -96.5t38.5 -90.5q25 -47 55 -80 l7 -7q2 -3 5 -5l3 -3v-1l3 -3l1 -2l1 -1q16 -22 20.5 -40.5t0.5 -54.5q-4 -45 -30.5 -89t-63.5 -65q-29 -18 -240 -98q-64 -24 -71 -27q-105 -40 -128 -63q-17 -15 -33 -63q-14 -40 -24 -270v-16q20 -7 32 -8q6 -1 45 -11l25 -8l1 -27l2 -61l4 -56l-53 19q-125 45 -154 59 q-17 6 -28 14q-11 6 -9 9q0 2 1 3t1 3q2 7 1 8l-3 6l-2 8v12l1 5q11 287 34 356q12 34 21.5 55.5t27.5 42.5t34.5 34t52.5 31t72.5 32t102.5 39q194 73 221 89q7 4 16.5 21t10.5 29v6l-7 7q-40 44 -74.5 106t-51.5 124q-4 13 -11 49q-21 97 -15 214q3 66 25.5 136t59.5 119 q41 54 74 76.5t93 37.5v6l36 1h109v-49l-3 -8zM1779 1763q34 -7 79.5 -38.5t86.5 -75.5q48 -65 69 -153.5t19.5 -164.5t-17.5 -151l-11 -49q-15 -59 -50 -120.5t-77 -109.5l-2 -3l-4 -4v-6q1 -12 10 -29t16 -21q22 -13 221 -89q69 -26 104.5 -40t72.5 -32.5t53 -30.5 t34 -33.5t27 -42t21 -55.5q23 -69 34 -356v-10l1 -7l-3 -8l-1 -6q-1 -1 1 -9t-6 -13l-53 -24q-31 -14 -131 -50l-52 -19l2 56l2 61l1 27l25 8q38 10 46 11q12 1 32 8v8q-1 2 -1 8q-10 232 -24 270q-19 57 -62 85q-18 10 -170 68q-217 85 -240 98q-37 20 -63 63.5t-31 90.5 q-2 39 2.5 59t19.5 36l1 1v2l4 2v1l3 3l3 4l6 6q2 2 2 3q151 176 111 442q-13 81 -52 135q-36 53 -44 55l-12 4q-9 4 -40 6q-23 0 -32 1h-7l-24 -1l-10 21l-31 58l-5 8v49h109l37 -1v-6zM882 743q38 16 49 24q11 4 19 15l21 25l-29 15l-11 4q-11 6 -21.5 25.5t-11.5 35.5v10 q6 8 11 13q17 18 45 58l9 15l-10 15q-20 24 -36 50l-22 33l-21 -33q-25 -44 -47 -65q-19 -19 -27 -32t-10.5 -31.5t0.5 -42.5q2 -22 10.5 -46.5t23 -46.5t32.5 -38l11 -9zM1611 751q18 15 32 36.5t22.5 44.5t9.5 45q4 34 -3 54.5t-33 46.5q-21 24 -48 65l-15 26l-16 -24 q-21 -33 -37 -52l-8 -10l7 -12q27 -39 46 -58q7 -7 11 -15v-12q0 -12 -6 -25.5t-14 -24.5t-16 -15q-3 -3 -10 -6l-23 -12l16 -18q11 -11 17 -14q16 -9 49 -24l10 -4z" />
<glyph unicode="&#xf015;" horiz-adv-x="1940" d="M1922 499q13 -8 16.5 -24t-4.5 -26l-133 -211q-8 -15 -25 -19t-30 5l-244 82l-3 3q-135 -123 -314 -174l-50 -215q0 -16 -11 -27.5t-28 -11.5h-251q-16 0 -27.5 11t-11.5 28l-49 213q-175 49 -320 178l-211 -73q-13 -8 -30 -5t-25 16l-133 212q-8 13 -5 29.5t16 24.5 l157 163q-32 111 -32 219q0 101 29 212l-2 2l-179 183q-15 8 -19 25t5 30l131 212q8 14 24.5 18t30.5 -4l245 -82l2 -3q142 123 311 172l54 232q0 16 11 27.5t28 11.5h251q17 0 29 -11.5t12 -27.5l55 -232q165 -47 301 -165l226 78q13 8 30 4.5t25 -16.5l135 -212 q8 -13 4.5 -30t-16.5 -25l-162 -167q34 -103 34 -232q0 -96 -30 -212l3 -3zM484 607q75 -131 205.5 -206t283.5 -75q112 0 216.5 43.5t182.5 121.5t121.5 182.5t43.5 216.5q0 152 -75 283q-76 131 -206.5 206.5t-282.5 75.5q-151 0 -282 -75q-131 -76 -207 -207t-76 -283 q0 -153 76 -283z" />
<glyph unicode="&#xf016;" horiz-adv-x="2045" d="M626 1849q189 81 397 81q203 0 392.5 -79t331.5 -219q69 -69 124.5 -153t94.5 -176t59.5 -193.5t20.5 -202.5q0 -203 -79.5 -393t-219.5 -330q-142 -140 -332 -219.5t-392 -79.5t-392 79.5t-332 219.5q-140 140 -219.5 330t-79.5 393q0 204 80 396q161 383 546 546z M1335 1648q-146 64 -312 64q-159 0 -308.5 -62.5t-260.5 -173.5t-173.5 -260.5t-62.5 -308.5t62.5 -309t173.5 -259q111 -111 260.5 -173.5t308.5 -62.5q217 0 402 108q186 108 294 293t108 403q0 160 -63 310q-126 299 -429 431zM1144 725q0 59 64 113q112 87 157 157.5 t45 164.5q0 82 -29 138q-54 119 -197 164q-68 20 -142 20q-116 0 -203 -41t-140 -121t-66 -193l253 -16q4 65 46.5 105t115.5 40q50 0 84 -32t34 -82q0 -20 -7.5 -38.5t-26 -40.5t-33.5 -36t-47 -43q-8 -7 -12 -11q-22 -18 -66 -57q-35 -35 -40 -42q-16 -23 -22 -42 q-14 -39 -14 -83v-72h246v48zM882 494q-11 -28 -11 -59q0 -64 43 -107t108 -43q63 0 106 43t43 107t-43 107t-106 43q-65 0 -108 -43q-19 -19 -32 -48z" />
<glyph unicode="&#xf017;" horiz-adv-x="2003" d="M278 1930q-95 0 -154.5 -42.5t-91.5 -145t-32 -271.5l8 -3q7 -4 35 -7q21 -4 67 -4q45 0 71.5 28.5t34.5 62.5q0 5 2 11q0 68 21.5 110.5t59.5 42.5h1349q54 0 95.5 -34.5t41.5 -85.5v-595q0 -26 -9 -50.5t-24.5 -43.5t-38 -30.5t-48.5 -11.5l-262 1l9 43q25 128 25 158 q0 19 -14.5 33t-29.5 14h-19q-12 0 -21 -9l-328 -328q-8 -8 -8 -21t8 -21l328 -329q9 -9 21 -9h19q15 0 29.5 14t14.5 33q0 33 -45 201h317q140 0 217 87t77 235v672q0 141 -86.5 218t-235.5 77h-1403zM1816 323q-20 -23 -28 -55l-3 -11q0 -69 -22 -111t-60 -42h-1349 q-54 0 -95 34t-41 86v595q0 26 9 50.5t24.5 43.5t38 30.5t48.5 11.5l262 -1l-8 -43q-25 -128 -25 -158q0 -20 13.5 -33.5t29.5 -13.5h20q11 0 20 9l328 328q8 8 8 21t-8 21l-328 329q-9 9 -20 9h-20q-10 0 -20 -6t-16.5 -17t-6.5 -24q0 -31 44 -202h-316q-141 0 -218 -86 t-77 -235v-674q0 -93 40 -159.5t112 -100.5t170 -34h1404q140 0 208.5 114.5t68.5 355.5l-109 3q-46 0 -78 -35z" />
<glyph unicode="&#xf018;" horiz-adv-x="2115" d="M881 120q4 -15 4 -27q0 -130 -149 -270l-19 -15l21 -39l46 18q116 48 224 112q70 41 132.5 91t94.5 95l24 35h534q149 0 235.5 77.5t86.5 218.5v1106q0 141 -86.5 218t-235.5 77h-1471q-148 0 -235 -77.5t-87 -217.5v-1106q0 -141 86.5 -218.5t235.5 -77.5h559zM1897 459 q0 -52 -41.5 -86t-95.5 -34h-1405q-54 0 -95 34t-41 86v1019q0 52 41 86t95 34h1405q54 0 95.5 -34.5t41.5 -85.5v-1019z" />
<glyph unicode="&#xf019;" horiz-adv-x="2048" d="M1758 665q68 0 116.5 -49t48.5 -117t-48.5 -117t-116.5 -49h-325l-70 -334q-11 -58 -57 -95.5t-105 -37.5q-6 0 -34 5q-67 14 -104.5 71.5t-23.5 123.5l55 267h-368l-71 -332q-11 -57 -56.5 -94t-104.5 -37q-19 0 -35 3q-67 14 -104.5 71.5t-24.5 124.5l55 264h-219 q-68 0 -117 49t-49 117q0 34 13 64.5t35.5 53t53 35.5t64.5 13h288l111 533h-275q-45 0 -83 22.5t-60 61t-22 83.5q0 68 48.5 116.5t116.5 48.5h345l58 280q12 57 58 94.5t104 37.5q12 0 34 -5q68 -13 105 -69.5t24 -125.5l-44 -212h369l58 278q12 56 58 93t104 37 q19 0 35 -3q66 -12 104 -70.5t25 -125.5l-44 -209h199q45 0 83 -22t60.5 -60t22.5 -83q0 -68 -49 -117.5t-117 -49.5h-269l-111 -533h256zM905 1198l-111 -533h369l111 533h-369z" />
<glyph unicode="&#xf020;" horiz-adv-x="2045" d="M0 -115h2044v180h-1864v1865h-180v-2045zM1586 1293q7 14 7 36q0 37 -26.5 63.5t-63.5 26.5q-24 0 -45 -12t-33 -33t-12 -45v-9l-156 -88q-25 18 -55 18q-24 0 -44 -11l-169 128q3 11 3 22q0 24 -12 45t-33 33t-45 12q-18 0 -35 -7t-29 -19.5t-19.5 -29t-7.5 -34.5 q0 -3 2 -17l-164 -112q-23 14 -48 14q-42 0 -69 -32l-221 67l-21 -69l221 -67q5 -33 31 -56t59 -23q37 0 63.5 26t26.5 64q0 13 -1 17l164 111q25 -14 48 -14q21 0 44 12l169 -129q-3 -9 -3 -21q0 -24 12 -45t33 -33t45 -12q38 0 64.5 26.5t26.5 63.5v5q-1 2 -1 4l157 88 q23 -19 54 -19q16 0 31 6l114 -122l-133 -185q-3 0 -6 1h-6q-37 0 -63 -26l-149 47q-5 32 -30 53.5t-59 21.5q-37 0 -63.5 -26.5t-26.5 -63.5q0 -12 3 -21l-181 -160q-15 6 -32 6q-28 0 -54 -18l-157 76q-2 36 -28 61.5t-62 25.5q-37 0 -63.5 -26.5t-26.5 -64.5 q0 -28 16 -51l-264 -507l75 -39l263 507q29 0 54 18l157 -76q2 -36 28 -61t62 -25q38 0 64 26.5t26 63.5q0 10 -3 21l181 159q20 -6 32 -6q35 0 64 26l148 -47q6 -32 31 -53.5t58 -21.5q37 0 63.5 26.5t26.5 63.5q0 23 -9 41l123 172l71 -75l52 50l-80 85l88 124l-68 49 l-79 -111zM902 1359q-6 0 -11.5 2.5t-9.5 6.5t-6.5 9.5t-2.5 11.5q0 12 8.5 21t21.5 9q8 0 15 -4t11 -11t4 -15q0 -13 -9 -21.5t-21 -8.5zM1503 1298q-12 0 -21 9t-9 22q0 12 9 21t21 9q8 0 15 -4t11 -11t4 -15t-4 -15.5t-11 -11.5t-15 -4zM580 1163q-9 9 -9 21 q0 13 8.5 21.5t21.5 8.5t21.5 -8.5t8.5 -21.5q0 -12 -8.5 -21t-21.5 -9q-14 0 -21 9zM1202 1130q-12 0 -21 9t-9 21q0 8 4 15t11 11t15 4t15.5 -4t11.5 -11t4 -15t-4 -15t-11.5 -11t-15.5 -4zM1202 914q-12 0 -21 8.5t-9 21.5q0 8 4 15t11 11t15 4t15.5 -4t11.5 -11t4 -15 q0 -13 -9 -21.5t-22 -8.5zM1503 817q-12 0 -21 9t-9 21q0 8 4 15t11 11t15 4q13 0 21.5 -8.5t8.5 -21.5q0 -12 -8.5 -21t-21.5 -9zM580 802q-9 9 -9 21q0 8 4 15t11 11t15 4q13 0 21.5 -8.5t8.5 -21.5q0 -12 -8.5 -21t-21.5 -9q-14 0 -21 9zM902 649q-13 0 -21.5 8.5 t-8.5 21.5q0 8 4 15t11 11t15 4q12 0 21 -8.5t9 -21.5t-9 -21.5t-21 -8.5z" />
<glyph unicode="&#xf021;" d="M0 629v1203h666l326 -332v-871h-992zM592 1452v238h-449v-918h706v680h-257zM241 1292v-55h504v55h-504zM2045 1207v-241h-962v241h962zM241 1134v-55h504v55h-504zM241 976v-56h504v56h-504zM2045 874v-241h-962v241h962zM2045 540v-240h-962v240h962zM2045 207v-240 h-962v240h962z" />
<glyph unicode="&#xf022;" d="M2045 1018q0 160 -62 308t-171 257q-72 72 -161.5 124t-193.5 80.5t-210 28.5q-223 0 -411 -113.5t-291 -306.5q-58 -24 -96 -74q-37 -50 -52 -128t-8 -147q6 -77 26.5 -141t72.5 -133q16 -49 40 -100q-9 -31 -27 -61t-35 -39q-40 -22 -210 -85q-46 -17 -66.5 -25 t-49 -20.5t-37.5 -16.5t-25 -15t-19 -15t-11.5 -18t-11.5 -22t-10 -28q-7 -19 -11 -59q-6 -52 -12 -164l-3 -47q7 -7 21 -15q17 -9 62 -22q49 -16 115 -26q168 -28 473 -28q153 0 276 9q210 14 307 44q46 13 65 23q18 11 23 16q-2 32 -3.5 63t-3 49t-2.5 34t-1 20 q196 21 361 131q164 111 258 286.5t94 375.5zM1251 420l-2 2t-3 2q-10 7 -160 64q-172 63 -209 85q-27 15 -46 64q-20 47 -19 69t27 49q18 21 36.5 48.5t34.5 61t24 63.5q35 130 13 262q-28 162 -160 210q85 102 205 159.5t255 57.5q161 0 300 -80q138 -81 218 -219.5 t80 -299.5q0 -162 -79 -298q-80 -138 -217 -218.5t-298 -81.5zM1146 1417v-398q0 -43 35 -75l196 -195l140 141l-170 171v356h-201z" />
<glyph unicode="&#xf023;" d="M687 1827v-222h-639v222h639zM1471 1827v-222h-673v222h673zM1993 1827v-222h-411v222h411zM687 1494v-222h-639v222h639zM1471 1494v-222h-673v222h673zM1993 1494v-222h-411v222h411zM715 1188v-277h-694v277h694zM1498 1188v-277h-727v277h727zM2021 1188v-277h-467 v277h467zM76 1133v-167h583v167h-583zM826 1133v-167h617v167h-617zM1609 1133v-167h356v167h-356zM687 827v-222h-639v222h639zM1471 827v-222h-673v222h673zM1993 827v-222h-411v222h411zM715 522v-278h-694v278h694zM1498 522v-278h-727v278h727zM2021 522v-278h-467v278 h467zM76 466v-166h583v166h-583zM826 466v-166h617v166h-617zM1609 466v-166h356v166h-356zM687 161v-223h-639v223h639zM1471 161v-223h-673v223h673zM1993 161v-223h-411v223h411z" />
<glyph unicode="&#xf024;" d="M1985 628v1147h-252v-1147h252zM1368 628h-657v574q114 -7 216 -54t181 -126v470h260v-864zM1680 628v695h-260v-695h260zM634 589q0 -9 5 -19l307 -530q-132 -65 -273 -65q-100 0 -194 31t-169.5 88t-132.5 132.5t-88 169t-31 193.5q0 120 45 230.5t122 191.5 t183.5 132.5t225.5 58.5v-613zM1197 705q-22 101 -80 186t-143 143t-186 80v-409h409zM1285 551q-9 -146 -81.5 -270.5t-191.5 -202.5l-273 473h546z" />
<glyph unicode="&#xf025;" d="M1132 1695q-3 39 -31.5 66t-67.5 27t-67.5 -27t-31.5 -66h-211q-31 0 -55 -20t-30 -50h-228q-27 0 -46 -19t-19 -46v-1554q0 -26 19 -45.5t46 -19.5h1247q26 0 45 19.5t19 45.5v1554q0 27 -19 46t-45 19h-229q-6 30 -30 50t-55 20h-211zM637 1423h792v47h164v-1374h-1120 v1374h164v-47zM646 1143q-15 15 -1 31q6 7 15 7t15 -6l28 -27l104 132q14 16 31 3q7 -5 8 -14t-5 -16l-134 -169l-17 17zM561 1132q0 55 39 94.5t95 39.5q9 0 15.5 -6.5t6.5 -15.5t-6.5 -15t-15.5 -6q-38 0 -64.5 -27t-26.5 -64.5t26.5 -64t64 -26.5t64.5 26.5t27 64.5 q0 9 6.5 15t15.5 6q8 0 14.5 -6t6.5 -15q0 -56 -39.5 -95.5t-94.5 -39.5q-36 0 -67 18t-49 49.5t-18 67.5zM953 1098q-11 0 -21 6t-16 16t-6 22q0 18 13 30.5t30 12.5h475q5 0 9.5 -1t9 -3t8 -5t6.5 -7t5.5 -8t3.5 -9t1 -10q0 -18 -13 -31t-30 -13h-475zM646 767q-7 6 -7 15 t6 15q6 7 15 7t15 -6l28 -26l104 131q13 16 31 4q16 -14 3 -31l-119 -150l-15 -18l-17 16zM561 753.5q0 55.5 39 95t95 39.5q9 0 15.5 -6t6.5 -15t-6.5 -15.5t-15.5 -6.5q-38 0 -64.5 -27t-26.5 -64.5t26.5 -64t64 -26.5t64.5 26.5t27 64.5q0 9 6.5 15.5t15.5 6.5 q8 0 14.5 -6.5t6.5 -15.5q0 -56 -39.5 -95t-95 -39t-94.5 39t-39 94.5zM953 721q-17 0 -30 13t-13 31t13 30.5t30 12.5h475q17 0 30 -12.5t13 -30.5t-13 -31t-30 -13h-475zM829 398.5q0 -55.5 -39.5 -94.5t-95 -39t-94.5 39t-39 94.5t39 95t94.5 39.5t95 -39.5t39.5 -95z M604 398.5q0 -37.5 26.5 -64t64 -26.5t64.5 26.5t27 64t-27 64.5t-64.5 27t-64 -27t-26.5 -64.5zM953 368q-17 0 -30 13t-13 31q0 17 13 30t30 13h475q11 0 21 -6t16 -16t6 -21q0 -18 -13 -31t-30 -13h-475z" />
<glyph unicode="&#xf026;" d="M1930 1560v-990h-340v-287h-210v-277q0 -42 -44 -42h-1169q-43 0 -43 42v836q0 14 6 25.5t17 18t25 6.5h138v284h278v275h284v286h894l166 -177h-2zM1809 1430h-175v186h-641v-165h417l178 -178h2v-570h219v727zM1468 1152h-177v177h-582v-153h352l177 -177h-3v-275h101 q19 0 31.5 -16.5t12.5 -38.5v-241h88v724zM432 893l130 -1q18 0 28 -10l8 -10l72 -148h444v153h-174v177h-508v-161z" />
<glyph unicode="&#xf027;" d="M1698 1472v-1517h-1324v1770h1070zM1529 124v1179h-254v253h-732v-1432h986z" />
<glyph unicode="&#xf028;" d="M737 1754q83 0 143.5 -62t60.5 -146v-240h895q56 0 103 -28t74 -76t27 -105v-927q0 -87 -59 -147t-145 -60h-1628q-84 0 -143.5 60.5t-59.5 146.5v1376q0 55 27.5 103t74.5 76.5t101 28.5h529zM1404 1642q93 0 148.5 -39.5t55.5 -122.5h-482v162h278zM302 1091 q-23 0 -43 -12t-31.5 -33t-11.5 -46v-761q0 -37 25.5 -62.5t60.5 -25.5h1441q38 0 64 25.5t26 62.5v761q0 38 -26 64.5t-64 26.5h-1441zM1621 893q13 0 20 -3.5t9.5 -12.5t2.5 -16.5t-1 -23t-1 -24.5v-378q0 -9 1 -25t1 -23.5t-2.5 -16.5t-9.5 -12.5t-20 -3.5h-1187 q-10 0 -17 3t-10 7.5t-4 13.5t-0.5 16t1 19.5t0.5 21.5v378q0 9 -1 24.5t-1 23t2.5 16.5t10 12.5t19.5 3.5h1187z" />
<glyph unicode="&#xf029;" d="M1967 -71h-1879v1880h1311l568 -569v-1311zM1595 301v567h-567v568h-568v-1135h1135z" />
<glyph unicode="&#xf030;" d="M1977 1784h-1904v-228h1904v228zM1310 921l-286 492l-281 -492h567zM743 782l281 -492l286 492h-567zM73 -82h1904v229h-1904v-229z" />
<glyph unicode="&#xf031;" d="M1977 1783h-1904v-228h1904v228zM1309 1413l-284 -491l-284 491h568zM741 288l284 492l284 -492h-568zM73 -81h1904v228h-1904v-228z" />
<glyph unicode="&#xf032;" d="M1963 -71v1880h-1880v-1880h1880zM1626 1472v-1206h-1206v1206h1206zM1343 549v639h-639v-639h639z" />
<glyph unicode="&#xf033;" d="M1926 1497q25 25 25.5 61t-25.5 61l-147 147q-24 25 -59 25t-61 -25l-127 -126q-12 -12 -12 -27.5t12 -27.5l213 -213q12 -12 28 -12t27 12zM1088 1471q39 0 67.5 28t28.5 68q0 39 -28.5 67.5t-67.5 28.5h-896q-41 0 -69.5 -28.5t-28.5 -67.5v-1537q0 -40 28.5 -68 t69.5 -28h1536q3 0 20.5 6.5t39.5 21t29 29.5q7 23 7 39v896q0 26 -13 48t-35 35t-48 13q-27 0 -49 -13t-35 -35t-13 -48v-800h-1344v1345h801zM1700 1282q12 4 12 18t-12 25l-215 214q-11 11 -26.5 11t-25.5 -11l-701 -701q-12 -10 -12 -26t12 -27l213 -215q11 -11 27.5 -9 t26.5 20zM880 482l6 1q7 3 8 7q8 8 8 20t-8 20l-203 204q-9 8 -20.5 8t-19.5 -8l-6 -9l-2 -5l-105 -305l-1 -6q-3 -14 7 -26q10 -10 27 -8l6 2z" />
<glyph unicode="&#xf034;" horiz-adv-x="2098" d="M1049 1957q143 0 278.5 -37.5t251 -105.5t212 -164.5t164.5 -212t105.5 -251t37.5 -278.5t-37.5 -279t-105.5 -251t-164.5 -212t-212 -164.5t-251 -105t-278.5 -37.5t-278.5 37.5t-251 105t-212 164.5t-164.5 212t-105.5 251t-37.5 279q0 122 27.5 240t79.5 221.5 t123.5 194.5t162.5 162.5t194.5 123.5t221.5 79.5t240 27.5zM477 1569v-2l20 14l8 8l9 4l8 3l16 8l4 -2h3l2 -2l10 2l14 6h6v-2l9 -4q5 1 11 1.5t11.5 1t10.5 1.5q-2 1 -5 4l-4 4l9 2l8 6l-6 -12l8 -2l8 8l4 8v4h4v-6l5 4l4 7l8 -4l6 2l2 6l8 -4l5 10l4 -2l10 6l4 8h8l4 -2 l3 6l14 5l21 6l-5 4l9 -4h24l4 4l-6 6q-2 1 -8 2t-8 2l-10 2l10 2l2 4h-8v6l-6 3l2 2q2 -2 8 -5l8 -4h8v11q-4 4 -4 10l-4 4h-6v4l-8 2h-5l-8 -6l6 6l5 4v1q-152 -56 -274 -161zM1707 879h6l10 14l6 10l6 -12l4 -17l3 -16l4 -6v-15l4 -8l-2 -12l2 -9l-2 -16l-2 -10l2 -7l2 9 q1 -1 2.5 -3t2.5 -3l2.5 -2.5l2.5 -2.5l2 -8l4 -4l2 -4l-2 -12h2v-11l4 -8v-8l9 -8l8 -7l6 4v3l-2 12l-2 2v12l2 7v10l-8 16h-2l-4 6h-5l-6 5l-2 12l-4 12l-6 -2v9l6 37v16l8 2v-12l7 2l8 -4l4 -13l4 -6h8l6 -6l-2 -12l3 -7l10 17l6 16l8 15l6 12v25l-6 25l-6 10l-8 6 l-17 29v10l4 15l7 16l2 4h10v-6l2 -10l4 2v16l6 5l7 12l2 10l4 -4l2 8l6 6l4 15l4 18v19q-1 6 -2 18.5t-2 18.5l2 4l-6 23l-4 2l-4 6v6l-4 9q-2 3 -7 9.5t-6 8.5l-8 12l-8 4l-2 9v10l-2 8l4 7l-4 6l-2 -2l-5 2v-11l-6 2l-4 5h-4l-6 8v8l2 2l-2 10v19l4 -4l2 -10l4 -3l2 -8 l2 6v7l2 8l4 -2h2v-2l3 -8l2 -1v-2l2 -6v-2h2l2 -2v4h2l8 -6v-4l8 -12l4 -9l3 -6l2 4v13l-2 8l-7 14l-4 7l-10 12l-4 4h-2v2l-4 6l-2 4v4q0 1 -1 3.5t-1 3.5v4l-5 8q-1 1 -1.5 2.5t-1 3.5t-1.5 4l-2 4l-4 11l4 -4v1q-113 188 -303 300v-1l6 -4l11 -6l-2 -2l-2 -4l-4 -2l2 -6 h-5l11 -9h-6l-9 3l-4 4l-8 4l-8 2l-2 -2l-6 -2l10 -6l-10 -5l-5 4l-10 -4l-2 -4l2 -2l-10 4v-4h-13v4l1 7v4l-5 4l-6 2h-12l-10 -4v-4l-5 4l-10 -2l2 4h-10l-4 -6v-3l4 -4l-8 -2l-4 -8h-5l-12 -4v-2l-12 -4l-6 -6l-5 -2l-2 -7l7 -2l-11 -4l-16 -2l-9 -4l7 -10l12 -7l-15 3 l-14 -2l-10 -5l8 -6h-8l-2 10l-6 3h-3l5 -7l-9 -8l13 -8v-10h10v-7l8 -6l-4 -6v-6l-8 -4l-2 -4h-10l10 16v8l-12 6l-5 13l-6 6l-6 2l2 8l-4 5h-19l-4 -1v-10l-10 -10l2 -4l8 -8v-5h9l2 -2l10 -4l-4 -6l-33 10l-11 2l-24 2l-4 -4l10 -6l-8 -8l-11 6l-12 -4h-16l-5 -4h-10l8 6 h-6q-5 -1 -20.5 -6.5t-24.5 -7.5l-2 -5l-13 -2l-6 3v6l11 2l-4 6l-23 4l2 -12l-4 -6l6 -5l-6 -8l-8 4h-7l-22 -10l6 -8l-8 -2l-21 8l-6 -4l4 -6l-2 -5l-6 3l-11 4l2 16l-12 8h6q15 -3 37 -10l15 2l10 6v7l-6 6l-29 14l-21 4l-12 8l-10 -2l-6 7l12 2l-21 10h-14l-14 2l-15 -6 l-12 2l-17 -2q-30 -11 -45 -15q-23 -10 -54 -28l-22 -7l-25 -4l-12 -6l-13 -25l-4 -12l8 -8h13l24 10l1 -8l-1 -17v-14l-2 -12l11 -1l10 7l12 -2l9 10l12 19l10 2l13 12l-5 8l-2 8l13 13q19 5 39 14l2 4l12 6l15 1l10 -5v-4l-6 -2l-25 -10l-12 -6l-8 -6v-9l-5 -10l7 -4l4 -6 h16l17 2h18l7 -11l-13 -6h-10l-10 4h-11l-14 -2l-2 -6l4 -4l4 2q-1 -3 -4 -8t-4 -8h-8l-3 10l-10 -2l-8 -6l-4 -7l-2 -10l-15 -2l-4 -6l-10 2v4l-10 4l-31 -6l-7 -2l-2 4l-8 6l-8 -2h-10l2 4l-7 4l1 3v6l12 8l2 -2l4 4l-4 2v4l8 2l4 6l-10 -2l-4 -2h-8l-4 -2l-3 -2l-6 -12 v-8l-4 -5v-4l-10 -4v2h-8l-4 -2l-7 2l-16 -2l-17 -16l-6 -2q-6 -2 -18 -2l-7 -9l-26 -4l-5 8l-6 -14l-12 8h-12l-4 -10l10 -8l2 -8v-17l-13 -23l-8 -6l-14 4l-8 2l-7 5l-12 4l-8 6l-15 -6v-6l-6 -7l-2 -4v-6l-2 -6l-6 -8l-4 -5l-6 -4l-4 -8v-6l4 -2l-2 -8l-5 -9h3l4 -4l4 2 l8 -4v-8l2 -6h4l6 4l7 2q12 -4 20 -6l12 8h7l6 8l8 4v7l8 10l13 8l2 4h14l13 6l2 7l4 8h16l17 -8l12 6h4l8 4h5l6 -6l6 -2l-2 -13l4 -10l8 -10l6 -7l7 -2l4 -6l6 -4l2 -6h2q1 -3 2 -7.5t2 -7.5l-4 -2l-4 -8l-2 -2h-19l-14 4l-4 -6l16 -10l4 -2l7 -6l4 6v4l6 8h6l10 10h6l3 5 l-7 6l7 8l12 -4l4 -8l4 2v2l-8 8l-15 12l3 2l-1 4l-10 2l-10 11l-2 12l-8 8l-2 7l2 4l2 6l10 4l8 -4h-2l-2 -4l2 -4l6 6l6 -4l-2 -4l2 -5h-2l5 -12l10 -6l6 -6q2 -2 4.5 -3.5l5 -3t4.5 -2.5l1 -4l2 -2l-2 -4l-3 -10v-6l5 -6v-7q1 -3 4 -8t4 -8v-10l2 -11l10 -8h8l-2 12h7 l-1 7l11 -5l2 7l-6 4l-6 8l6 2l-4 8v7l2 2l4 -7h6l6 2l-6 7l16 2l5 -2l8 -2v-2l2 -5q3 2 9 4.5t9 4.5h15l2 4l-10 6v6l-2 8l6 9l8 4l6 16l4 -2l6 2v4l11 9l6 6h12v-6l17 -3l4 -4l-12 -4l-1 -2l11 -4l-4 -6l4 -2l18 6l13 2l4 4h-11l-6 4v7l11 4h12l8 2h10l11 2v-2l-17 -4 l6 -5l-12 -10l-10 -2l8 -8l14 -6l15 -11l4 -4l8 -2l8 -6l11 -17l-2 -6l-15 -6l-12 2l-16 -2l-17 6l-21 11l-22 2l-15 -2l-16 -7l-23 3l-8 -9l-19 2l-16 -12l6 -8l-8 -9l8 -8l6 -14l13 -2l12 -8h10l4 6l13 -2l10 -7h19l10 7l10 -4h8l-6 -5l4 -6l-4 -6v-10l-8 -9l-8 -16 l-4 -10l-4 -6l-4 -3l-7 -4l-10 2l-10 4l-4 -4l-4 7l-9 2h-12l-6 -4l-11 -3q-6 3 -17 7.5t-14 5.5l-18 2l-2 6l-13 4l-4 2h-4l-4 6l-18 5h-9l-10 -5l-6 -6v-12l-8 -6l-7 -2l-12 10l-16 8l-9 4l-4 13l-16 10l-9 4h-6l-14 8l-4 4l-2 7l-6 2v8l10 8l6 11l-4 4l2 6l8 6v2l-12 -4 l2 6l-8 4l-13 -4h-8l-4 4l-12 2l-11 -4l-4 4l-37 6l-12 -2l-8 -4h-11l-12 -4l-4 2l-7 6l-10 2l-4 7l-6 2l-17 -19l-8 -4l-10 -4l-8 -8l-4 -6l-7 -9v-18l-10 -8l-6 -1l-10 -8l-7 2l-6 -4l-10 -12l-6 -2l-6 -8l-2 -7l-3 -8l-4 -2l-12 -16v-5l-4 -6l-4 -2q-1 -2 -2 -6t-2 -6 v-17l-2 -6q0 -14 -1 -22l-4 -13l-4 -6v-8l-2 -6l-2 -3l-4 -2l2 -8l2 -14l-2 -6v-15l2 -4v-2l2 -6l2 -2l4 -8l2 -3v-12l3 -6l2 -8l4 -9v-12l2 -6l4 -10l6 -7l8 -16l7 -12l8 -13l10 -10h4q3 1 7.5 2t7.5 2l12 -2l6 -2l12 -6l9 -7l10 2l6 3l17 4h20q2 -1 5.5 -1.5l7 -1 t6.5 -1.5l8 -11l4 -12l8 -10l9 -2l4 2l4 -2l14 2v-4l4 -1l2 -8l5 -4l6 -12l-2 -11l-4 -16l2 -2q0 -9 -4 -19l-2 -4v-4l8 -16l10 -13l14 -16l13 -13q4 -12 6 -16v-2l8 -10q1 -2 9 -23l-3 -4v-2q1 -2 4 -7t5 -8l4 -6l2 -8v-10l-4 -4l-6 -7l-5 -4l-2 -10v-6l-2 -9v-10l6 -18 l13 -13l16 -22l15 -15l4 -6l4 -14l10 -17l6 -8l5 -10l8 -7l12 -10q21 -23 33 -33l4 -8l-2 -2l6 -6l2 -6l1 -1v1l4 -3h4l6 -4h4l6 2h10l9 2l4 -2h6l14 -4l5 2l8 -2v2h6l12 2l7 4q3 2 9.5 7t8.5 6l6 6l2 4l4 4l9 6l2 3v8l2 8v6h-4l-2 4l6 4q5 2 15 4.5l10 2.5l6 4l2 4l-4 2v16 h-2v4l-4 5l-7 8v8l6 2l9 8l6 2l16 11l10.5 3.5t16.5 4.5l8 6l9 4l4 8l-2 5l-2 20l-2 11v12l-2 6l-5 4l-6 13l-6 8v10l4 8v3l-10 6l-2 8l6 16l6 4l2 9l4 6l2 10h5l4 6l10 5l4 4l4 8l17 16l14 9l21 14l16 12q22 24 31 35l14 21q2 6 17 35l4 16l4 5v16v4h-6l-8 -6l-8 -2l-7 -2 h-14l-6 -2h-8l-13 -4l-16 -2l-13 -4h-8l-6 6l-2 6q-2 1 -6 4t-5 4l7 2v6l-4 4l-7 3q-4 4 -11 12t-11 12l-19 15l-8 8l-4 14l-8 17q-2 2 -6.5 5t-6.5 5l-4 17l-2 16l4 2l-4 13l-2 4l-16 14v10l4 2l-11 17l-8 16l-8 23l-8 15l-4 16l2 2l8 -21q2 -2 5 -6t5 -6h6l4 8l3 9l4 6v-2 l-2 -6l-2 -5l-1 -8h7q12 -18 14 -22l4 -11l4 -4l4 -8l-2 -4l4 -7l7 -4l6 -6l8 -16l-2 -8l2 -9l10 -14l5 -2l10 -10l4 -11l8 -18l8 -6l2 -5l3 -4l2 -6v-6l-2 -2l2 -6h-3l3 -5l2 -12l2 -4v-8l4 -8l10 -1l6 1h7l2 4l4 2l4 4h18l9 2l10 6h10l13 10l24 7l15 6v6l2 6l12 4h8l9 6 l-2 -4l8 4v5l6 4h10l4 4l2 8l9 6h6l2 2l-2 9l2 8l2 4h6l6 10l6 6l7 13v4l-6 2q-3 6 -11 14l-8 2l-10 2l-7 5l-6 10l-2 12l2 2l2 6l-2 2l-4 -6l-29 -29h-22l-11 -2v4h-2l-2 5l4 8v8l-4 4l-4 -2l-4 -8l2 -10l-4 8l-4 4l-2 4l2 4v6l-10 5l-2 6l-7 4q-2 3 -3.5 7.5t-3 8.5 t-3.5 7l2 4l-4 6h8l6 6l7 -6l8 4l10 -19l10 -14l13 -4l16 -12l17 -3l14 7l12 2l7 -2l6 -17l16 -4l42 -6l20 4l23 2l25 4l12 -10l6 -10l10 -1l17 -12l2 -4l-6 -6l20 -15h9l20 9l4 -13l2 -18q4 -11 13 -46l14 -20l2 -10l4 -17l7 -14l6 -5l12 -35l14 -12l5 6l2 9l12 6l-4 4 l6 12l8 2v25l6 16l-2 11l-4 20l4 11l5 2l18 12v6l15 7l8 12l12 20l15 13l6 10l-2 10l14 5l8 2v6h7l2 4l6 -2l2 10l-2 6l10 2l6 -8l4 -6l2 -8l3 -6l10 -11h6v-6l10 -16l4 -13l-2 -20zM1103 1554l2 -8l-8 -2l2 -6l14 -2l2 -4h25l4 2l-16 8l-4 8l12 10l8 9l21 6l39 12l2 4l-6 4 l-11 -2l-10 -4l-21 -2l-35 -12l1 -4l-15 -8l8 -2zM600 1546l2 6l8 6l-6 3l-12 -1l-2 5l-12 -2l2 10l-5 2l-10 -4l4 -6l-4 -2l-8 2l2 -9h-8l6 -10l4 -4h25zM588 1427l-8 4l14 8l8 8l-8 2h-10l16 9l-10 2l-4 2l-11 -7l-12 -10v-6l-8 -10l8 4v-4l-6 -4v-3l8 -4v-8l-6 -6l-10 4 l-5 -8v-8l-10 -1v-6l11 -6h-7l-20 -8l2 -4l8 2l6 -4l8 4l3 -2h16l12 -4l11 4v8l6 2l6 8l-10 4v5l4 14l-4 4zM509 1394l17 4l12 8l4 8l7 6l-2 9l-5 2q-12 -6 -24 -9l-6 -12l-11 -10zM1148 1173l-4 4l-2 -12h8l-4 -10l10 -4l-2 -13l2 -10l-2 -4l-22 -4l-19 2l-10 8l-13 2 l-4 10v6l4 3l1 4l2 10l10 2l-4 4h-6l-5 10q-14 12 -22 23l2 8l-12 13l12 14l12 2l6 8l25 9l12 -4h11l2 -7l-2 -14l-11 2l-10 -2v-10l-12 2v-4l8 -3l6 -12l15 -4l2 -4l-2 -6v-4l4 -7v9l10 4l6 -9l9 -8zM656 1173h2l-2 -2v2zM1890 1002l-2 -2q1 -6 2 -18.5t2 -18.5l-2 4l2 -14 l2 -6l1 -2l-1 6v12l2 8v13l-2 10v6zM1920 830q3 37 3 78v6q0 18 -2 54v-2v-3q0 -6 0.5 -19t0.5 -20l-1 6l-2 4l-4 -4l2 -10v-6h5q0 -6 -0.5 -18.5t-0.5 -18.5v4l-2 -4v-7l-2 -6l-2 6l-2 -8l-1 -6l-3 -14v-3l3 11h1l2 6l2 -4l-2 -8v-9l4 -4v17l2 10v-6q0 -7 -2 -23zM1906 942 l-6 4v-10l2 -2l2 6l2 -3v5zM1907 936l1 -2v6zM1908 932l-2 2l-2 -6l4 -4v8zM1923 914h-1v10zM1912 891q-3 -4 -3 -10l3 -7l1 5v10l2 8v14l-2 -18v10l-1 -2v-10zM1917 897l2 6l-2 8v-14zM1890 854l-2 -12l6 20l2 12l4 7l-2 12l-2 -16l-2 -11zM1873 687l2 14l5 13l2 12v8l6 6 l-4 9l2 8l-2 12l4 15l4 8v6l4 4l2 7l-8 4v6l-2 6l-2 -2l-2 -14l-4 -13l-5 -12q-2 -5 -6 -16t-6 -15l-8 -8l-4 -3l-2 -14l-6 -6l-3 2l-6 -12l-2 -13v-12l2 -10l2 -2l-2 -17l6 2l3 2v-4l10 8l2 -2l4 2v-8l8 10v-4zM1909 753q2 6 2 9l-2 -3l-3 -4l-4 -2l-4 2l-4 -13 q-8 -28 -10 -41l-4 -10v-8l2 2l-2 -13l-3 -14v-2l3 4q4 13 8 35l4 6l-2 -14l2 -6l-2 -6v-2l4 8v8l2 6v13l4 8l2 10h2l2 8l-8 -12l-4 -8l-2 10l2 12l4 6l6 5h4l1 4v2zM1554 714l2 16l-6 13l-6 10l-9 8l-6 -25l2 -22l5 -11l12 5zM1781 611l4 -9l8 3q2 7 5 19.5t5 19.5l-2 8 l-6 -2l-2 6v10h-2l-4 4l4 13l-6 4l-4 10l-6 8l-9 -2l-8 11l-12 12l-7 12l-16 -2l-6 -2v-8l10 -14l8 -5l4 -12l7 -6l4 -8l2 -11l8 -10l6 -27l4 -8l2 -8zM1855 600q2 1 10 9l-2 6l-4 -4v2l-2 -6l-2 -2l-4 -7zM1842 594l5 9l-4 4l-7 -2v8h-10l-2 -6l-12 -4v4h-2l-3 2l-10 -4 l-8 -15l6 2v-6h12l3 4l4 2l6 -2h6l6 2l6 4zM1095 390l2 6l-4 5l-2 14l-3 8l-4 6l-4 5l-6 -5v-8l-8 -8l-6 2l2 -6l-4 -6l-11 -7l-8 -6h-6l-6 -2l-7 -2h-8l-2 -8l-6 -6l2 -9l2 -8l2 -6l-2 -8l-6 -8v-3l-6 -2l-2 -8l2 -8l4 -8l2 -9l4 -6l17 -6l12 4l12 2l8 13q4 12 27 63v9l4 2 l2 6l-2 8l4 4l3 -8z" />
</font>
</defs>
</svg>
