<?xml version="1.0" standalone="no"?>
<!DOCTYPE svg PUBLIC "-//W3C//DTD SVG 1.1//EN" "http://www.w3.org/Graphics/SVG/1.1/DTD/svg11.dtd" >
<svg xmlns="http://www.w3.org/2000/svg" xmlns:xlink="http://www.w3.org/1999/xlink" version="1.1">
<metadata></metadata>
<defs>
<font id="commcarehq_fontregular" horiz-adv-x="2046" >
<font-face units-per-em="2048" ascent="1755" descent="-293" />
<missing-glyph horiz-adv-x="685" />
<glyph horiz-adv-x="0" />
<glyph horiz-adv-x="0" />
<glyph unicode="&#xd;" horiz-adv-x="682" />
<glyph unicode=" "  horiz-adv-x="685" />
<glyph unicode="&#x09;" horiz-adv-x="685" />
<glyph unicode="&#xa0;" horiz-adv-x="685" />
<glyph unicode="&#x25fc;" horiz-adv-x="500" d="M0 0z" />
<glyph unicode="&#xf000;" horiz-adv-x="2042" d="M2005 990q58 -218 -49 -405q-52 -93 -134 -158.5t-185 -95.5q-38 -12 -88 -17q-10 -103 -66 -202q-51 -93 -133.5 -158.5t-186.5 -95.5q-101 -29 -206 -16.5t-197 64.5q-94 53 -159.5 135t-93.5 184q-12 52 -16 88q-111 13 -204 66q-93 52 -158.5 135t-94.5 186 q-30 100 -17.5 205.5t65.5 197.5q52 94 134.5 159t185.5 94q50 12 89 16q11 109 62 204q53 93 136 158.5t184 94.5q215 61 404 -48q93 -52 159 -134.5t96 -185.5q10 -36 17 -89q105 -11 202 -62q191 -109 254 -320zM715 1486q-34 -64 -40 -127q70 -16 131 -49 q48 -28 448 -278q11 19 26.5 44.5t26 43t16.5 28.5t16 33q35 81 25 178q-6 37 -11 52q-38 137 -164 209q-127 70 -264 30q-138 -37 -210 -164zM1154 843q0 57 -39 97.5t-95 40.5q-57 0 -97.5 -40.5t-40.5 -97.5q0 -56 40.5 -95.5t97.5 -39.5q56 0 95 39.5t39 95.5zM553 629 q77 137 278 449q-12 8 -116 70q-11 6 -33 16q-88 36 -178 24q-26 -1 -52 -9q-138 -39 -210 -166q-69 -128 -29 -264q36 -135 164 -209q63 -34 127 -41q16 73 49 130zM1322 201q33 59 42 126q-69 17 -131 52q-43 23 -449 276l-69 -115q-6 -11 -16 -33q-36 -89 -24 -180 q1 -27 9 -51q40 -138 166 -209q124 -69 264 -31q136 39 208 165zM1795 674q69 123 31 264q-39 138 -165 210q-60 34 -125 40q-17 -68 -53 -130q-20 -36 -68.5 -115t-118.5 -191t-89 -143q26 -15 65 -38.5t51 -30.5t33 -16q85 -36 180 -25q28 3 51 10q138 40 208 165z" />
<glyph unicode="&#xf001;" d="M696 1368q0 39 -6 189h-157q-35 0 -63.5 -11.5t-41.5 -27.5q-5 -5 -10 -12q-12 -14 -15 -17q-38 -44 -137 -252l-23 -69h-243v763h2047v-763h-225l-25 69q-77 174 -147 266q-39 49 -111 54h-176q-12 -129 -12 -189v-901q0 -95 24 -139q18 -32 31.5 -47t42.5 -33 q35 -22 127 -64l142 -41v-260h-1379v260l133 41q70 33 110 55q14 7 24 15q8 5 17 12q7 4 12 12l4 4l2 3q4 3 14 16q6 5 10 13q15 24 26 83q5 38 5 70v901z" />
<glyph unicode="&#xf002;" horiz-adv-x="1696" d="M662 342v1025q-49 -31 -115 -68l-100 -57q-50 -27 -90.5 -35t-127.5 -8v416q285 116 497 316h412v-1589h329v-459h-1238v459h433z" />
<glyph unicode="&#xf003;" horiz-adv-x="2752" d="M1182 -34v539q0 37 -30 72q-10 37 -69 66l-194 146q-33 23 -102 43q-37 9 -58 17q-49 15 -57 17q6 1 115 32q47 11 102 40l194 123q59 29 69 60q13 17 21.5 48t8.5 56v545l-1182 -794v-223zM1577 1770v-545q0 -69 23 -104q28 -37 70 -60l196 -123q55 -29 102 -40 q60 -20 115 -32q-6 -1 -57 -17q-20 -7 -58 -17q-69 -20 -102 -43l-196 -146q-41 -22 -67 -60t-26 -78v-539l1175 787v223z" />
<glyph unicode="&#xf004;" horiz-adv-x="2232" d="M1290 1281l49 -18q41 -16 57.5 -33t23.5 -51q7 -29 7 -109v-630q0 -112 -9 -146q-11 -35 -31 -49q-12 -8 -48 -23l-49 -21v-10h326v136h3q66 -159 250 -159q160 0 261.5 113.5t101.5 286.5q0 192 -95.5 301t-263.5 109q-82 0 -152 -44t-97 -113h-5v470h-329v-10zM243 608 q-243 -42 -243 -224q0 -101 67 -158.5t179 -57.5q75 0 143.5 37t108.5 99q9 -62 44.5 -99t90.5 -37q136 0 186 131l-12 5q-29 -41 -64 -41q-60 0 -60 99v390q0 187 -221 220q-40 6 -87 6q-113 0 -185 -25q-45 -16 -74 -42q-66 -61 -66 -174h196q-13 29 -13 61q0 40 31 76.5 t98 36.5q59 0 93.5 -36.5t34.5 -100.5v-121zM984 751h-209v-121h209v-231h121v231h208v121h-208v219h-121v-219zM1813 272q-98 0 -148 75t-50 219q0 146 52.5 227t145.5 81q96 0 146 -77.5t50 -230.5q0 -136 -51.5 -215t-144.5 -79zM490 441q0 -75 -47 -122t-112 -47 q-57 0 -91.5 36.5t-34.5 96.5q0 61 34.5 102t99.5 52l151 26v-144z" />
<glyph unicode="&#xf005;" horiz-adv-x="2084" d="M0 1360q0 -72 93 -72h3q8 0 50 5q31 16 43 72q17 70 72 113q54 45 147 45q187 0 285 -125q3 -3 24 -43l186 -368q-21 -23 -86 -120l-626 -849q-21 -53 -21 -76q0 -43 134 -43h159q66 0 107 53q232 326 295 416q126 182 162 225l21 30q5 7 33 47q96 -245 133 -326 q8 -14 45 -111q40 -104 59.5 -142.5t60.5 -91.5q92 -116 242 -116q229 0 344 183q120 182 120 391q0 70 -96 70q-33 0 -54 -10q-26 -12 -38 -68q-16 -67 -80 -111q-63 -48 -166 -48q-202 0 -310 126l-2 6l-21 38q-8 14 -30 60l-40 76l-101 193q19 11 98 126l627 883 q43 49 43 74q0 43 -137 43h-165q-77 0 -122 -53q-213 -300 -343 -502q-44 -68 -94 -148q-44 -70 -51 -81q-127 257 -171 348q-27 47 -55 108q-50 112 -60 127q-70 157 -143 190q-48 27 -109 27q-154 0 -265 -99q-103 -88 -151.5 -212t-48.5 -260z" />
<glyph unicode="&#xf006;" horiz-adv-x="2460" d="M406 1777q168 0 286.5 -119.5t118.5 -287.5q0 -169 -118.5 -288t-286.5 -119t-287 119.5t-119 287.5t119.5 287.5t286.5 119.5zM2461 1325q0 -84 -60 -143.5t-144 -59.5h-967q-84 0 -143.5 59.5t-59.5 143.5v88q0 84 59.5 143.5t143.5 59.5h967q84 0 144 -59.5t60 -143.5 v-88zM545 1506q-59 56 -139 56q-82 0 -139.5 -56t-57.5 -136t57.5 -138t139.5 -58q81 0 138 57.5t57 138.5q0 80 -56 136zM406 651q168 0 286.5 -119t118.5 -287q0 -169 -118.5 -288t-286.5 -119q-111 0 -203 55q-94 54 -148.5 147.5t-54.5 204.5q0 168 119.5 287t286.5 119 zM2461 198q0 -84 -60 -142.5t-144 -58.5h-967q-84 0 -143.5 58.5t-59.5 142.5v91q0 83 59.5 142.5t143.5 59.5h967q84 0 144 -59.5t60 -142.5v-91z" />
<glyph unicode="&#xf007;" horiz-adv-x="2459" d="M613 1774q84 0 143.5 -60t59.5 -144v-403q0 -84 -59 -143t-144 -59h-412q-83 0 -142 59t-59 143v403q0 84 59 144t142 60h412zM2459 1325q0 -84 -59.5 -143.5t-143.5 -59.5h-967q-84 0 -143.5 59.5t-59.5 143.5v88q0 84 59.5 143.5t143.5 59.5h967q84 0 143.5 -59.5 t59.5 -143.5v-88zM210 1561v-385h396v385h-396zM613 649q85 0 144 -59.5t59 -142.5v-407q0 -84 -59 -142.5t-144 -58.5h-412q-83 0 -142 58.5t-59 142.5v407q0 83 59 142.5t142 59.5h412zM2459 198q0 -84 -59.5 -142.5t-143.5 -58.5h-967q-84 0 -143.5 58.5t-59.5 142.5v91 q0 83 59.5 142.5t143.5 59.5h967q84 0 143.5 -59.5t59.5 -142.5v-91zM210 439v-390h396v390h-396z" />
<glyph unicode="&#xf008;" horiz-adv-x="2052" d="M651 854q0 -94 18 -233q2 -20 11 -107q12 -133 107 -313q80 -138 215 -232q140 -87 345 -87q200 0 341.5 83.5t221.5 235.5q85 143 109 313q34 177 34 340q0 156 -34 344q-26 171 -109 312q-73 142 -213 229q-133 90 -350 90q-376 0 -560 -319q-72 -128 -107 -312 q-29 -200 -29 -344zM1048 854q0 42 6 176q17 243 124 367q56 66 169 66q197 0 264 -228q42 -153 42 -381q0 -224 -42 -379q-67 -226 -264 -226q-190 0 -257 226q-28 106 -36 199q-6 142 -6 180zM0 142q0 -46 18 -96q26 -50 52 -79q32 -31 79.5 -50.5t95.5 -19.5q45 0 95 21 q98 41 129 128q20 43 20 96t-20 96q-16 45 -52 76q-71 71 -172 71q-61 0 -95 -18q-46 -21 -75.5 -49.5t-56.5 -79.5q-18 -51 -18 -96z" />
<glyph unicode="&#xf009;" horiz-adv-x="3094" d="M417 631h265v1300h-258l-424 -357l157 -181l260 230v-992zM1826 519h-577l394 340q44 40 69 68q43 53 58 82q45 83 45 199q0 93 -32 171q-63 148 -224 195q-81 26 -165 26q-91 0 -177 -26q-163 -46 -241 -198q-37 -78 -41 -175l275 -20q6 72 49.5 118.5t119.5 46.5 q65 0 112 -39q48 -37 48 -102q0 -58 -36 -101q-32 -38 -80 -81l-505 -454v-292h908v242zM2426 337q95 -2 143 -62q22 -31 22 -84q0 -79 -44.5 -123t-131.5 -44q-90 0 -133 40q-46 39 -60 111l-291 -69q41 -176 167 -255q123 -81 300 -81q206 0 331 96q61 46 102 123 q35 78 35 171q0 112 -64 200q-67 85 -180 103v6q106 21 165 98q58 79 58 186q0 179 -133 273q-60 48 -139 67q-75 22 -167 22q-88 0 -157 -18q-155 -35 -240 -151q-45 -58 -66 -144l303 -61q13 53 56.5 87t104.5 34q68 0 115 -39t47 -97q0 -89 -66 -119q-59 -26 -143 -26 h-90v-239h64z" />
<glyph unicode="&#xf00a;" horiz-adv-x="2442" d="M765 252q34 -100 61 -147l17 -30h-704q-58 0 -98.5 41t-40.5 99v1392q0 58 40.5 98.5t98.5 40.5h139v104q0 72 51.5 123.5t123.5 51.5h69q71 0 122.5 -51.5t51.5 -123.5v-104h418v104q0 72 51 123.5t123 51.5h70q72 0 122.5 -51.5t50.5 -123.5v-104h140q58 0 98.5 -40.5 t40.5 -98.5v-175l-33 8q-28 7 -95 12t-122 3q-75 -3 -167.5 -25t-170.5 -58q-25 -11 -80 -44h-203v-169l19 18q-38 -39 -88 -104v255h-348v-313h309q-24 -40 -39 -70h-270v-347h184l5 39q-3 -63 2 -143l-7 34h-184v-313h251zM417 1537q0 -13 11 -23.5t25 -10.5h69 q14 0 24.5 10.5t10.5 23.5v313q0 14 -10.5 25t-24.5 11h-69q-14 0 -25 -11t-11 -25v-313zM1253 1537q0 -13 10.5 -23.5t24.5 -10.5h70q14 0 24 10.5t10 23.5v313q0 14 -10.5 25t-23.5 11h-70q-14 0 -24.5 -11t-10.5 -25v-313zM2377 877q65 -156 65 -323 q0 -225 -111.5 -418.5t-304.5 -305.5q-190 -112 -419 -112q-226 0 -419 111.5t-305 305.5q-112 190 -112 419q0 167 64.5 321.5t179.5 269.5t270.5 180t321.5 65t322 -65q315 -134 448 -448zM139 1328v-313h314v313h-314zM1042 1255q38 33 100 73h3zM1042 1255l-17 -14l10 9 zM958 1177q33 34 67 64zM2120 340q43 102 43 214q0 150 -74 278.5t-203 203.5t-279 75t-279 -74.5t-204 -203.5t-75 -279q0 -149 75 -278t204 -204q128 -75 279 -75q110 0 215 44q211 90 298 299zM831 1015q14 24 39 58l-37 -58h-2zM1920 554q13 0 23.5 -10.5t10.5 -24.5 v-70q0 -13 -10 -23.5t-24 -10.5h-418q-14 0 -24.5 10.5t-10.5 23.5v488q0 13 10.5 23.5t24.5 10.5h69q14 0 25 -10.5t11 -23.5v-383h313zM139 945v-347h314v347h-314zM729 771q19 83 63 174h3zM713 667q3 55 16 102l-18 -132zM139 528v-313h314v313h-314zM765 252 q-11 32 -21 66q-24 78 -31 176z" />
<glyph unicode="&#xf00b;" horiz-adv-x="2161" d="M2091 1215q70 121 70 264q0 144 -70 265q-70 122 -191.5 192t-265.5 70q-105 0 -201.5 -40.5t-169.5 -113.5t-113.5 -171t-40.5 -202t40.5 -201.5t113.5 -170.5t170 -113.5t201 -40.5q141 0 263 70.5t194 191.5zM1578 805q-10 -1 -30 0q-27 0 -83 10q-65 11 -118.5 30.5 t-117.5 60.5q-144 91 -212 235q-34 71 -45.5 167t4.5 161l6 29q-33 -56 -62 -100q-62 -98 -176 -259t-200 -266q-223 -275 -489 -523q-36 -33 -46 -48q-10 -13 -8.5 -35.5t14.5 -35.5q22 -25 94 -102q72 -76 99 -107q39 -46 101 -11l88 65q552 398 1083 677z" />
<glyph unicode="&#xf00c;" horiz-adv-x="2425" d="M565 937q-263 -153 -414 -402.5t-151 -536.5h2425q0 291 -153 543t-417 402l226 359q25 32 16.5 72.5t-44.5 64.5q-36 20 -77 11t-65 -43l-242 -377q-212 79 -458 79q-250 0 -466 -84l-243 382q-23 34 -63 43t-77 -11q-36 -24 -44.5 -65t15.5 -72zM871 439 q-43 -42 -102 -42t-101 41.5t-42 100.5q0 61 42 102.5t101 41.5q60 0 102 -42t42 -102q0 -58 -42 -100zM1656 397q-59 0 -101.5 42t-42.5 100q0 60 42.5 102t101.5 42q61 0 102.5 -41.5t41.5 -102.5q0 -59 -42 -100.5t-102 -41.5z" />
<glyph unicode="&#xf00d;" horiz-adv-x="2508" d="M2450 1814q31 -7 47.5 -36t8.5 -63l-410 -1488l-10 -36l-4 -14q-22 -35 -123 -162q-49 -62 -113 -151l-28 -33l-4 44q-13 114 -25 183q-8 84 -19 206v11l420 1527q7 30 36.5 48t62.5 12l13 -7l135 -36zM1792 -93q7 -18 14 -37l8 -39l-16 38q-25 55 -64 85q-20 18 -67 31 q-67 12 -205 -24q-88 -21 -104 -24q-195 -42 -323 -14q-44 9 -118 34l-37 18l-40 23l-2 2q-2 1 -3 2t-3 2l-2 2q-13 10 -23 12l-15 13l-19 16q-181 147 -95 371q16 41 45 88q37 62 102 144q4 5 50 64q142 162 184 249q13 22 22 51l-1 34h-2l2 1l-10 13l-2 6l-4 4q-3 3 -6 3 l-2 3q-2 0 -4 2q-1 1 -4 1q-38 9 -81 1q-55 -8 -117 -33q-95 -37 -249 -128.5t-289 -194.5q-15 -11 -34 -26l-20 -16t-21 -16q-7 -7 -11 -9l-31 -24l-195 252l38 25q39 29 97 66q229 146 363 213q263 126 443 143q132 6 217 -40l29 -17q9 -9 27 -23q18 -10 44 -48l5 -8 l6 -11h2v-2l4 -10l11 -17l7 -21q1 -3 2.5 -9.5t2.5 -9.5l6 -19l2 -18q16 -86 -35 -183.5t-133 -184.5q-45 -48 -120 -123q-88 -89 -140 -155q-94 -120 -76 -192q8 -49 60 -99q7 -10 7 -11l14 -10q3 -1 11 -9q14 -14 21 -15l26 -19l27 -15q54 -34 123 -47q100 -23 253 -8 q25 1 76 9q100 12 156 12q66 0 98 -13q42 -14 75 -45q27 -27 43 -66zM1064 1075l2 -3v3h-2zM2063 241q-15 16 -37 26l-13 2q-48 4 -70 -37l-4 -15l-26 7q4 4 4 15q1 22 -10 40t-30 26q-8 5 -12 5q-22 7 -49 -3l-10 -38q0 -25 23 -220l92 -26q117 151 133 179z" />
<glyph unicode="&#xf00e;" horiz-adv-x="1698" d="M1352 -71q35 50 54 499.5t18 933.5l-1 441q0 48 -38.5 95.5t-80.5 47.5l-62 16q-64 14 -180 27.5t-207 13.5q-103 0 -211.5 -13t-167.5 -30l-49 -14q-51 0 -102 -48.5t-51 -94.5q0 -44 1 -61q0 -65 8 -399q14 -743 39 -1130q6 -100 16 -187q8 -77 25 -109.5t63 -62.5 q66 -45 190 -60q47 -5 73 -5h272q80 0 184 22q65 12 120 43t87 75zM1282 785q0 -17 -13.5 -26.5t-35.5 -9.5h-769q-37 0 -37 36v958q0 35 37 35h769q22 0 35.5 -9t13.5 -26v-958zM843 678q59 0 108 -17q46 -18 46 -42q0 -28 -46.5 -49t-107.5 -21q-62 0 -108 21t-46 49 q0 26 46 42q48 17 108 17zM451 440q7 3 18 6q63 17 90 7q92 -20 105 -37q0 -18 -31.5 -32.5t-73.5 -14.5q-52 0 -93 32q-32 23 -15 39zM1139 453q56 7 101 -7l17 -6q10 -18 -33 -44.5t-85 -26.5q-57 0 -86 25q-14 11 -8 22q0 12 80 33l1 1h2l2 1zM855 429q40 0 67.5 -14.5 t27.5 -33.5t-27.5 -33t-67.5 -14q-42 0 -75 14.5t-33 32.5t33 33t75 15zM451 310q7 3 18 6q59 16 90 6q91 -20 105 -36q0 -18 -31.5 -32t-73.5 -14q-53 0 -94 32q-27 22 -14 38zM1139 322q56 8 101 -6l17 -6q10 -18 -33 -44t-85 -26q-39 0 -71 15q-32 14 -23 31q0 11 77 32 q4 0 17 4zM855 286q95 0 95 -36q0 -18 -27 -31.5t-68 -13.5q-44 0 -76 13.5t-32 31.5q0 17 31 27q30 9 77 9zM469 189q50 22 90 16q78 -17 105 -50q0 -18 -31.5 -32t-73.5 -14q-53 0 -94 32q-29 23 -14 38zM1139 205q23 3 52.5 -2.5t48.5 -14.5l17 -9q10 -18 -33 -44 t-85 -26q-39 0 -71 15q-32 14 -23 31q0 10 29 25q28 15 65 25zM855 155q41 0 68 -13.5t27 -32.5q0 -36 -95 -36q-108 0 -108 36q0 18 32 32t76 14zM469 67q57 17 90 6q77 -13 105 -48q0 -35 -105 -35q-51 0 -88 24t-20 48zM1139 73q56 8 101 -6l17 -5q9 -26 -30.5 -49 t-87.5 -23q-42 0 -72 9q-31 9 -22 26q0 10 29 25q27 15 65 23zM855 25q41 0 68 -13.5t27 -32.5q0 -36 -95 -36q-108 0 -108 36q0 17 33 31.5t75 14.5z" />
<glyph unicode="&#xf00f;" horiz-adv-x="2134" d="M4 1719q0 -49 34 -83.5t84 -34.5h268l339 -1025q-64 -51 -100.5 -124.5t-36.5 -157.5q0 -147 104 -251t250 -104q145 0 248 102t105 248l744 250q46 15 68 59t6 91q-14 47 -58 68.5t-91 5.5l-744 -249q-48 63 -119 99.5t-153 37.5l-339 1025q-23 71 -85 116t-138 45h-268 q-50 0 -84 -34.5t-34 -83.5zM905 1339l182 -565q15 -47 58 -69t90 -6l561 183q45 15 67.5 59t7.5 90l-182 564q-15 47 -58.5 69.5t-89.5 6.5l-169 -55l73 -225l-224 -74l-72 225l-168 -54q-47 -16 -69.5 -59.5t-6.5 -89.5z" />
<glyph unicode="&#xf010;" horiz-adv-x="2097" d="M1575 1949q141 0 262 -70t190.5 -191.5t69.5 -261.5v-1037q0 -141 -69 -262q-70 -122 -190 -191.5t-263 -69.5h-1060q-140 0 -258 70q-119 70 -188 191t-69 262v1037q0 140 69 261q69 122 188 192t258 70h1060zM541 1401v-991h1016v991h-1016z" />
<glyph unicode="&#xf011;" horiz-adv-x="2098" d="M1049 1959q289 0 530 -144q240 -143 379.5 -383t139.5 -525q0 -170 -53 -330.5t-150 -291.5q-205 -273 -515 -376q-164 -53 -331 -53q-208 0 -402.5 81.5t-338.5 225.5q-145 145 -226.5 340t-81.5 404q0 208 81.5 403.5t226.5 340.5t339.5 226.5t401.5 81.5zM1049 1403 q-138 0 -254 -65q-118 -66 -186 -181t-68 -250q0 -137 68 -253q68 -118 185.5 -186.5t254.5 -68.5q102 0 196 40t163 110t107.5 164t38.5 194q0 208 -146.5 352t-358.5 144z" />
<glyph unicode="&#xf012;" horiz-adv-x="1976" d="M258 1603v-1277q0 -26 18 -43.5t43 -17.5h1520q50 0 86 -35.5t36 -85.5q0 -52 -35.5 -87.5t-86.5 -35.5h-1520q-127 0 -216 89.5t-89 215.5v1277q0 51 35 86.5t85 35.5q52 0 88 -35.5t36 -86.5zM1804 1173l-486 -487q-36 -34 -86.5 -34t-87.5 34l-218 219l-339 -341 q-37 -34 -87 -34t-85 34q-36 37 -36 87.5t36 86.5l425 425q36 37 86 37t87 -37l218 -218l400 401q36 35 86.5 35t86.5 -35q35 -36 35 -86t-35 -87z" />
<glyph unicode="&#xf013;" horiz-adv-x="1970" d="M1813 1521q0 80 -110.5 148t-301.5 107.5t-416 39.5t-415.5 -39.5t-301.5 -107.5t-111 -148v-177q0 -81 111 -149t301.5 -107.5t415.5 -39.5t416 39.5t301.5 107.5t110.5 149v177zM1610 1024q-258 -94 -625 -94q-366 0 -626 94q-127 45 -202 105v-376q0 -80 111 -148.5 t301.5 -108t415.5 -39.5t416 39.5t301.5 108t110.5 148.5v376q-80 -62 -203 -105zM157 538v-317q0 -80 111 -148t301.5 -107.5t415.5 -39.5t416 39.5t301.5 107.5t110.5 148v317q-78 -61 -203 -106q-257 -92 -625 -92q-367 0 -626 92q-126 46 -202 106z" />
<glyph unicode="&#xf014;" horiz-adv-x="2460" d="M558 1257q127 0 217.5 90t90.5 217q0 128 -90 218t-218 90q-127 0 -217 -90.5t-90 -217.5t90 -217t217 -90zM1973 1257q127 0 217 90t90 217q0 128 -90 218t-217 90t-217.5 -90t-90.5 -218q0 -127 90.5 -217t217.5 -90zM5 724q0 -34 24 -58t58 -24h820h3 q-78 69 -122.5 165t-44.5 204q0 41 8 86q-82 37 -172 37h-164q-169 0 -289.5 -120t-120.5 -290zM1563 642h820q34 0 58 24t24 58q0 170 -120.5 290t-289.5 120h-164q-90 0 -172 -37q8 -45 8 -86q0 -108 -44.5 -204t-122.5 -165h3zM1604 1011q0 153 -108 261t-261 108 t-261 -108t-108 -261t108 -261t261 -108t261 108t108 261zM497 7q0 -43 30 -73t73 -30h1270q43 0 73 30t30 73q0 212 -150 362t-362 150h-452q-212 0 -362 -150t-150 -362z" />
<glyph unicode="&#xf015;" horiz-adv-x="2166" d="M1056 1304v2l-77 -69q7 -34 7 -72t-7 -72l77 -68q18 -17 24 -40t-3 -45q-12 -31 -26 -54l-11 -19q-17 -30 -34 -50q-30 -41 -84 -24l-98 32q-53 -45 -123 -72l-22 -101q-5 -23 -22.5 -40t-41.5 -20q-29 -4 -69 -4q-41 0 -70 4q-24 3 -41.5 19.5t-22.5 40.5l-21 101 q-68 24 -124 72l-98 -32q-54 -17 -84 24q-17 20 -34 50l-10 18q-12 19 -27 54q-9 23 -3 46t24 40l77 68q-7 40 -7 72q0 31 7 71l-77 68q-40 37 -21 87q16 36 27 53l10 18q17 30 34 50q14 19 37.5 25.5t46.5 -1.5l98 -31q60 48 125 72l20 100q5 24 22.5 41t41.5 20q29 4 70 4 q39 0 71 -4q23 -3 40.5 -20t22.5 -41l21 -100q65 -24 125 -72l96 32q23 8 47 1t38 -26q17 -20 34 -50l11 -18q15 -29 26 -53q9 -23 3 -46.5t-25 -40.5zM711 1165q0 68 -48.5 116t-116.5 48t-116.5 -48t-48.5 -116t48.5 -116.5t116.5 -48.5t116.5 48.5t48.5 116.5zM1731 49v1 l-68 76q-38 -5 -72 -5t-71 5l-68 -76q-37 -42 -87 -21q-31 14 -53 26l-18 10q-22 13 -50 34q-43 32 -25 85l33 97q-48 56 -73 125l-100 20q-24 5 -41 22.5t-20 41.5q-4 31 -4 70t4 70q3 25 20 42t41 21l100 22q25 67 73 124l-33 97q-8 23 -1 46.5t26 37.5q20 17 50 34l18 11 q17 10 53 26q50 19 87 -21l68 -77q26 6 71 6q43 0 72 -6l68 77q17 18 40 24t46 -3q34 -15 54 -26l18 -11q30 -17 50 -34q19 -14 26 -37.5t-1 -46.5l-33 -97q48 -57 73 -124l100 -22q23 -5 40 -22.5t21 -40.5q3 -35 3 -71q0 -34 -3 -70q-4 -24 -20.5 -41.5t-40.5 -22.5 l-100 -20q-25 -68 -73 -125l33 -97q8 -23 1 -46.5t-26 -38.5q-36 -25 -50 -33l-18 -11l-54 -27q-48 -19 -86 22zM1591 394q68 0 116.5 48.5t48.5 116.5q0 69 -48.5 117.5t-116.5 48.5t-116 -48.5t-48 -117.5q0 -68 48 -116.5t116 -48.5z" />
<glyph unicode="&#xf016;" horiz-adv-x="2045" d="M1843 907q0 -164 -62 -315t-178 -265q-115 -116 -266 -178t-315 -62q-163 0 -314 62t-266 178q-115 115 -177 266t-62 314t62 313.5t177 267.5q115 115 266.5 177t313.5 62q163 0 314 -62t267 -177q116 -117 178 -267.5t62 -313.5zM13 907q0 -201 77 -386.5t219 -328.5 q142 -141 327.5 -218.5t385.5 -77.5q201 0 387 77t329 219q142 143 219 329t77 386t-77.5 386t-218.5 328q-143 142 -329 219t-387 77q-200 0 -385.5 -77t-327.5 -219t-219 -327.5t-77 -386.5zM683 1265v-1l-1 -4q-13 -37 3.5 -72t53.5 -49t72.5 3t48.5 55l2 4q7 22 29 22 h231q25 0 42 -17.5t17 -43.5q0 -36 -30 -51l-176 -100q-46 -29 -46 -82v-53q0 -40 27 -68t66 -28t66.5 27.5t28.5 66.5l129 73q57 33 90 91t33 125q0 103 -72 175.5t-175 72.5h-231q-69 0 -127 -40t-81 -106zM897 528q0 -53 36 -89q37 -37 89 -37t91 37q37 35 37 89 q0 53 -37 90q-40 37 -91 37q-50 0 -89 -37q-36 -38 -36 -90z" />
<glyph unicode="&#xf017;" horiz-adv-x="2003" d="M278 1930q-95 0 -154.5 -42.5t-91.5 -145t-32 -271.5l8 -3q7 -4 35 -7q21 -4 67 -4q45 0 71.5 28.5t34.5 62.5q0 5 2 11q0 68 21.5 110.5t59.5 42.5h1349q54 0 95.5 -34.5t41.5 -85.5v-595q0 -54 -34 -95t-86 -41l-262 1l9 43q25 128 25 158q0 19 -14.5 33t-29.5 14h-19 q-12 0 -21 -9l-328 -328q-8 -8 -8 -21t8 -21l328 -329q9 -9 21 -9h19q15 0 29.5 14t14.5 33q0 33 -45 201h317q140 0 217 87t77 235v672q0 141 -86.5 218t-235.5 77h-1403zM1816 323q-20 -23 -28 -55l-3 -11q0 -69 -22 -111t-60 -42h-1349q-54 0 -95 34t-41 86v595 q0 54 34 95t86 41l262 -1l-8 -43q-25 -128 -25 -158q0 -20 13.5 -33.5t29.5 -13.5h20q11 0 20 9l328 328q8 8 8 21t-8 21l-328 329q-9 9 -20 9h-20q-16 0 -29.5 -13.5t-13.5 -33.5q0 -31 44 -202h-316q-141 0 -218 -86t-77 -235v-674q0 -140 87 -217t235 -77h1404 q140 0 208.5 114.5t68.5 355.5l-109 3q-46 0 -78 -35z" />
<glyph unicode="&#xf018;" horiz-adv-x="2115" d="M694 575q-185 0 -341 78q-42 -22 -82 -37q-107 -41 -203 -41q-16 0 -30 10t-19 26q-12 36 18 58l1 1q1 0 3 2q8 6 14 12q25 23 44 48q29 38 47 80q-130 149 -130 336q0 156 90.5 288t247 209t340.5 77t340 -77t246.5 -209t90.5 -288q0 -155 -90.5 -287t-246.5 -209 t-340 -77zM1476 1148v1q0 16 -2 50q173 -10 316.5 -88.5t227 -206.5t83.5 -277q0 -187 -130 -336q16 -40 47 -80q23 -29 44 -48q3 -3 7.5 -7t5.5 -5l4 -2l1 -1q29 -21 19 -58q-5 -16 -19 -26t-31 -10q-97 0 -202 41q-42 16 -82 37q-158 -78 -342 -78q-231 0 -412 118.5 t-241 302.5q142 12 271 68t225.5 143t153 207.5t56.5 254.5z" />
<glyph unicode="&#xf019;" horiz-adv-x="2048" d="M1758 665q68 0 116.5 -49t48.5 -117t-48.5 -117t-116.5 -49h-325l-70 -334q-11 -58 -57 -95.5t-105 -37.5q-6 0 -34 5q-67 14 -104.5 71.5t-23.5 123.5l55 267h-368l-71 -332q-11 -57 -56.5 -94t-104.5 -37q-18 0 -35 3q-67 14 -104.5 71.5t-24.5 124.5l55 264h-219 q-68 0 -117 49t-49 117t49 117t117 49h288l111 533h-275q-68 0 -116.5 49.5t-48.5 117.5t48.5 116.5t116.5 48.5h345l58 280q12 57 58 94.5t104 37.5q12 0 34 -5q68 -13 105 -69.5t24 -125.5l-44 -212h369l58 278q12 56 58 93t104 37q19 0 35 -3q66 -12 104 -70.5t25 -125.5 l-44 -209h199q68 0 117 -48.5t49 -116.5t-49 -117.5t-117 -49.5h-269l-111 -533h256zM905 1198l-111 -533h369l111 533h-369z" />
<glyph unicode="&#xf020;" horiz-adv-x="2045" d="M0 -115h2044v180h-1864v1865h-180v-2045zM1586 1293q7 14 7 36q0 37 -26.5 63.5t-63.5 26.5t-63.5 -26.5t-26.5 -63.5v-9l-156 -88q-25 18 -55 18q-24 0 -44 -11l-169 128q3 11 3 22q0 37 -26.5 63.5t-63.5 26.5t-64 -26.5t-27 -63.5q0 -3 2 -17l-164 -112q-23 14 -48 14 q-42 0 -69 -32l-221 67l-21 -69l221 -67q5 -33 31 -56t59 -23q37 0 63.5 26t26.5 64q0 13 -1 17l164 111q25 -14 48 -14q22 0 44 12l169 -129q-3 -9 -3 -21q0 -37 26.5 -63.5t63.5 -26.5q38 0 64.5 26.5t26.5 63.5v5q-1 2 -1 4l157 88q23 -19 54 -19q16 0 31 6l114 -122 l-133 -185q-3 0 -6 1h-6q-37 0 -63 -26l-149 47q-5 32 -30 53.5t-59 21.5q-37 0 -63.5 -26.5t-26.5 -63.5q0 -12 3 -21l-181 -160q-15 6 -32 6q-28 0 -54 -18l-157 76q-2 36 -28 61.5t-62 25.5q-37 0 -63.5 -26.5t-26.5 -64.5q0 -28 16 -51l-264 -507l75 -39l263 507 q29 0 54 18l157 -76q2 -36 28 -61t62 -25q38 0 64 26.5t26 63.5q0 11 -3 21l181 159q20 -6 32 -6q35 0 64 26l148 -47q6 -32 31 -53.5t58 -21.5q37 0 63.5 26.5t26.5 63.5q0 23 -9 41l123 172l71 -75l52 50l-80 85l88 124l-68 49l-79 -111zM902 1359q-13 0 -21.5 8.5 t-8.5 21.5q0 12 8.5 21t21.5 9q12 0 21 -9t9 -21q0 -13 -9 -21.5t-21 -8.5zM1503 1298q-12 0 -21 9t-9 22q0 12 9 21t21 9q13 0 21.5 -9t8.5 -21q0 -13 -8.5 -22t-21.5 -9zM580 1163q-9 9 -9 21q0 13 8.5 21.5t21.5 8.5t21.5 -8.5t8.5 -21.5q0 -12 -8.5 -21t-21.5 -9t-21 9z M1202 1130q-12 0 -21 9t-9 21q0 13 9 21.5t21 8.5q13 0 22 -8.5t9 -21.5q0 -12 -9 -21t-22 -9zM1202 914q-12 0 -21 8.5t-9 21.5q0 12 9 21t21 9q13 0 22 -9t9 -21q0 -13 -9 -21.5t-22 -8.5zM1503 817q-12 0 -21 9t-9 21q0 13 9 21.5t21 8.5q13 0 21.5 -8.5t8.5 -21.5 q0 -12 -8.5 -21t-21.5 -9zM580 802q-9 9 -9 21q0 13 8.5 21.5t21.5 8.5t21.5 -8.5t8.5 -21.5q0 -12 -8.5 -21t-21.5 -9t-21 9zM902 649q-13 0 -21.5 8.5t-8.5 21.5t8.5 21.5t21.5 8.5q12 0 21 -8.5t9 -21.5t-9 -21.5t-21 -8.5z" />
<glyph unicode="&#xf021;" d="M0 629v1203h666l326 -332v-871h-992zM592 1452v238h-449v-918h706v680h-257zM241 1292v-55h504v55h-504zM2045 1207v-241h-962v241h962zM241 1134v-55h504v55h-504zM241 976v-56h504v56h-504zM2045 874v-241h-962v241h962zM2045 540v-240h-962v240h962zM2045 207v-240 h-962v240h962z" />
<glyph unicode="&#xf022;" d="M2045 1018q0 160 -62 308t-171 257t-257 171t-308 62q-223 0 -411 -113.5t-291 -306.5q-58 -24 -96 -74q-37 -50 -52 -128t-8 -147q6 -77 26.5 -141t72.5 -133q16 -49 40 -100q-9 -31 -27 -61t-35 -39q-40 -22 -210 -85q-60 -23 -85 -32.5t-56 -24.5t-38.5 -20t-20.5 -21 t-16.5 -26t-13.5 -36q-7 -19 -11 -59q-6 -52 -12 -164l-3 -47q8 -8 21 -15q17 -9 62 -22q49 -16 115 -26q168 -28 473 -28q153 0 276 9q210 14 307 44q46 12 65 23q17 11 23 16q-2 42 -4.5 78.5t-4 60.5t-1.5 27q197 21 361 131q164 111 258 286.5t94 375.5zM1251 420l-2 2 q-2 2 -3 2q-10 7 -160 64q-172 63 -209 85q-27 15 -46 64q-19 47 -18.5 69t26.5 49q69 77 95 173q35 130 13 262q-28 162 -160 210q85 102 205 159.5t255 57.5q161 0 300 -80q139 -81 218.5 -219.5t79.5 -299.5q0 -162 -79 -298q-80 -139 -217 -219t-298 -81zM1146 1417 v-398q0 -43 35 -75l196 -195l140 141l-170 171v356h-201z" />
<glyph unicode="&#xf023;" d="M687 1827v-222h-639v222h639zM1471 1827v-222h-673v222h673zM1993 1827v-222h-411v222h411zM687 1494v-222h-639v222h639zM1471 1494v-222h-673v222h673zM1993 1494v-222h-411v222h411zM715 1188v-277h-694v277h694zM1498 1188v-277h-727v277h727zM2021 1188v-277h-467 v277h467zM76 1133v-167h583v167h-583zM826 1133v-167h617v167h-617zM1609 1133v-167h356v167h-356zM687 827v-222h-639v222h639zM1471 827v-222h-673v222h673zM1993 827v-222h-411v222h411zM715 522v-278h-694v278h694zM1498 522v-278h-727v278h727zM2021 522v-278h-467v278 h467zM76 466v-166h583v166h-583zM826 466v-166h617v166h-617zM1609 466v-166h356v166h-356zM687 161v-223h-639v223h639zM1471 161v-223h-673v223h673zM1993 161v-223h-411v223h411z" />
<glyph unicode="&#xf024;" d="M1985 628v1147h-252v-1147h252zM1368 628h-657v574q232 -15 397 -180v470h260v-864zM1680 628v695h-260v-695h260zM634 589q0 -9 5 -19l307 -530q-132 -65 -273 -65q-125 0 -239 48.5t-196.5 131t-131 196t-48.5 238.5q0 161 76.5 298.5t209 221t290.5 93.5v-613z M1197 705q-34 152 -145 263.5t-264 145.5v-409h409zM1285 551q-9 -146 -81.5 -270.5t-191.5 -202.5l-273 473h546z" />
<glyph unicode="&#xf025;" d="M1132 1695q-3 39 -31.5 66t-67.5 27t-67.5 -27t-31.5 -66h-211q-31 0 -55 -20t-30 -50h-228q-27 0 -46 -19t-19 -46v-1554q0 -26 19 -45.5t46 -19.5h1247q26 0 45 19.5t19 45.5v1554q0 27 -19 46t-45 19h-229q-6 30 -30 50t-55 20h-211zM637 1423h792v47h164v-1374h-1120 v1374h164v-47zM646 1143q-15 15 -1 31q15 16 30 1l28 -27l104 132q14 16 31 3q7 -5 8 -14t-5 -16l-134 -169l-17 17zM561 1132q0 56 39.5 95t94.5 39q9 0 15.5 -6.5t6.5 -15.5t-6.5 -15t-15.5 -6q-37 0 -64 -26.5t-27 -64.5t27 -64.5t64 -26.5t64 26.5t27 64.5q0 9 6.5 15 t15.5 6q8 0 14.5 -6t6.5 -15q0 -56 -39.5 -95.5t-94.5 -39.5t-94.5 39.5t-39.5 95.5zM953 1098q-17 0 -30 13t-13 31t13 30.5t30 12.5h475q17 0 30 -12.5t13 -30.5t-13 -31t-30 -13h-475zM646 767q-16 15 -1 30q15 16 30 1l28 -26l104 131q13 16 31 4q16 -14 3 -31 l-119 -150l-15 -18l-17 16zM561 754q0 56 39.5 95t94.5 39q9 0 15.5 -6t6.5 -15t-6.5 -15.5t-15.5 -6.5q-37 0 -64 -26.5t-27 -64.5t27 -64.5t64 -26.5t64 26.5t27 64.5q0 9 6.5 15.5t15.5 6.5q8 0 14.5 -6.5t6.5 -15.5q0 -56 -39.5 -95t-94.5 -39t-94.5 39t-39.5 95z M953 721q-17 0 -30 13t-13 31t13 30.5t30 12.5h475q17 0 30 -12.5t13 -30.5t-13 -31t-30 -13h-475zM829 399q0 -55 -39.5 -94.5t-94.5 -39.5t-94.5 39.5t-39.5 94.5t39.5 94.5t94.5 39.5t94.5 -39.5t39.5 -94.5zM604 399q0 -37 27 -64t64 -27t64 27t27 64t-27 64t-64 27 t-64 -27t-27 -64zM953 368q-17 0 -30 13t-13 31q0 17 13 30t30 13h475q17 0 30 -13t13 -30q0 -18 -13 -31t-30 -13h-475z" />
<glyph unicode="&#xf026;" d="M1930 1560v-990h-340v-287h-210v-277q0 -42 -44 -42h-1169q-43 0 -43 42v836q0 21 13.5 35.5t34.5 14.5h138v284h278v275h284v286h894l166 -177h-2zM1809 1430h-175v186h-641v-165h417l178 -178h2v-570h219v727zM1468 1152h-177v177h-582v-153h352l177 -177h-3v-275h101 q19 0 31.5 -16.5t12.5 -38.5v-241h88v724zM432 893l130 -1q18 0 28 -10l8 -10l72 -148h444v153h-174v177h-508v-161z" />
<glyph unicode="&#xf027;" d="M1698 1472v-1517h-1324v1770h1070zM1529 124v1179h-254v253h-732v-1432h986z" />
<glyph unicode="&#xf028;" d="M737 1754q83 0 143.5 -62t60.5 -146v-240h895q86 0 145 -61t59 -148v-927q0 -87 -59 -147t-145 -60h-1628q-84 0 -143.5 60.5t-59.5 146.5v1376q0 84 60 146t143 62h529zM1404 1642q93 0 148.5 -39.5t55.5 -122.5h-482v162h278zM302 1091q-35 0 -60.5 -26.5t-25.5 -64.5 v-761q0 -37 25.5 -62.5t60.5 -25.5h1441q38 0 64 25.5t26 62.5v761q0 38 -26 64.5t-64 26.5h-1441zM1621 893q13 0 20 -3.5t9.5 -12.5t2.5 -16.5t-1 -23t-1 -24.5v-378q0 -9 1 -25t1 -23.5t-2.5 -16.5t-9.5 -12.5t-20 -3.5h-1187q-12 0 -19.5 3.5t-10 12.5t-2.5 16.5t1 23.5 t1 25v378q0 9 -1 24.5t-1 23t2.5 16.5t10 12.5t19.5 3.5h1187z" />
<glyph unicode="&#xf029;" d="M1967 -71h-1879v1880h1311l568 -569v-1311zM1595 301v567h-567v568h-568v-1135h1135z" />
<glyph unicode="&#xf030;" d="M1977 1784h-1904v-228h1904v228zM1310 921l-286 492l-281 -492h567zM743 782l281 -492l286 492h-567zM73 -82h1904v229h-1904v-229z" />
<glyph unicode="&#xf031;" d="M1977 1783h-1904v-228h1904v228zM1309 1413l-284 -491l-284 491h568zM741 288l284 492l284 -492h-568zM73 -81h1904v228h-1904v-228z" />
<glyph unicode="&#xf032;" d="M1963 -71v1880h-1880v-1880h1880zM1626 1472v-1206h-1206v1206h1206zM1343 549v639h-639v-639h639z" />
<glyph unicode="&#xf033;" d="M1926 1497q26 25 26 61t-26 61l-147 147q-24 25 -59.5 25t-60.5 -25l-127 -126q-12 -12 -12 -27.5t12 -27.5l213 -213q12 -12 28 -12t27 12zM1700 1282q12 4 12 18t-12 25l-215 214q-11 11 -26 11t-26 -11l-701 -701q-12 -10 -12 -26t12 -27l213 -215q11 -11 27.5 -9 t26.5 20zM880 482l6 1q7 3 8 7q8 8 8 20t-8 20l-203 204q-21 19 -40 0l-6 -9l-2 -5l-105 -305l-1 -6q-3 -14 7 -26q10 -10 27 -8l6 2zM1088 1471q39 0 67.5 28t28.5 68q0 39 -28.5 67.5t-67.5 28.5h-896q-41 0 -69.5 -28.5t-28.5 -67.5v-1537q0 -40 28.5 -68t69.5 -28h1536 q3 0 20.5 6.5t39.5 21t29 29.5q7 23 7 39v896q0 40 -28 68t-68 28t-68.5 -28t-28.5 -68v-800h-1344v1345h801z" />
<glyph unicode="&#xf034;" horiz-adv-x="2098" d="M2098 908q0 171 -53 331t-150 289t-226 226t-289 150t-331 53t-331 -53t-289 -150t-226 -226t-150 -289t-53 -331q0 -214 83 -408t223.5 -334.5t335 -223.5t407.5 -83t407.5 83t335 223.5t223.5 334.5t83 408zM1920 830l-1 -1q2 16 2 23v6l-2 -10v-9v-8l-4 4v9l2 8l-2 4 l-2 -6h-1l-3 -11v3l3 14l1 6l2 8l2 -6l2 6v7l2 4v12v-4v-12q2 44 0 86v3v2q2 -40 2 -60q0 -40 -3 -78zM1909 748v-2v5l-1 -4h-4l-6 -5l-4 -6l-2 -12l2 -10l4 8l8 12l-2 -8h-2l-2 -10l-4 -8v-13l-2 -6v-3v-5l-1 -3l1 3l-4 -8v2l2 6l-2 6l2 14l-4 -6q-4 -22 -8 -35l-3 -4v2 l3 14l2 13l-2 -2v8l4 10q2 13 10 41l4 13l4 -2l4 2l3 4l2 3q0 -3 -2 -9v-3v-2zM477 1569q122 105 274 161v-1l-5 -4l-2 -2l-4 -4l8 6h5l8 -2v-4h6l4 -4q0 -6 4 -10v-11h-8l-8 4q-6 3 -8 5l-2 -2l6 -3v-6h8l-2 -4l-10 -2l10 -2q2 -1 8 -2t8 -2l6 -6l-4 -4h-20h-4l-9 4l5 -4 q-2 -1 -6 -2t-7.5 -2t-7.5 -2l-14 -5l-3 -6l-4 2h-8l-4 -8l-10 -6l-4 2l-5 -10l-8 4l-2 -6l-6 -2l-4 2l-4 2l-4 -7l-5 -4v6h-4v-4l-4 -8l-8 -8l-8 2l6 12l-8 -6l-9 -2l4 -4t5 -4q-6 -1 -16.5 -2t-16.5 -2l-9 4v2h-6l-14 -6l-10 -2l-2 2h-3l-4 2l-8 -4l-8 -4l-8 -3l-9 -4 l-8 -8q-3 -2 -10 -7t-10 -7v2zM1494 1660q190 -112 303 -300v1v-2l-4 4l4 -11l2 -4q1 -2 2 -5.5t2 -4.5l5 -8v-4q0 -1 1 -3.5t1 -3.5v-4l2 -4l4 -6v-2h2l4 -4l10 -12l4 -7l7 -14l2 -8v-5v-8l-2 -4l-3 6l-4 9l-8 12v4l-8 6h-2v-2v-2l-2 2h-2v2l-2 6v2l-2 1l-3 8v2h-2l-4 2 l-2 -8v-7l-2 -6l-2 8l-4 3l-2 10l-4 4v-8v-11l2 -10l-2 -2v-8l6 -8h4l4 -5l6 -2v11l5 -2l2 2l4 -6l-4 -7l2 -8v-10l2 -9l8 -4l8 -12q1 -2 6 -8.5t7 -9.5l4 -9v-6l4 -6l4 -2q1 -4 3 -11.5t3 -11.5l-2 -4q1 -6 2 -18.5t2 -18.5v-19l-4 -18l-4 -15l-6 -6l-2 -8l-4 4l-2 -10 l-7 -12l-6 -5v-16l-4 -2l-2 10v6h-10l-2 -4l-7 -16l-4 -15v-10q3 -5 8.5 -14.5t8.5 -14.5l8 -6l6 -10l6 -25v-25l-6 -12l-8 -15l-6 -16l-10 -17l-3 7l2 12l-6 6h-8l-4 6l-4 13l-8 4l-7 -2v12l-8 -2v-16q-1 -6 -3 -19.5t-3 -17.5v-9l6 2l4 -12l2 -12l6 -5h5l4 -6h2l4 -8l4 -8 v-10l-2 -7v-4v-8l2 -2l2 -12v-3l-6 -4l-8 7l-9 8v8l-4 8v11h-2l2 12l-2 4l-4 4l-2 8q-2 1 -3.5 3l-3 4t-3.5 4l-2 -9l-2 7l2 10l2 16l-2 9l2 12l-4 8v15l-4 6l-3 16l-4 17l-6 12l-6 -10l-10 -14h-6l-7 2l2 20l-4 13l-10 16v6h-6l-10 11l-3 6l-2 8l-4 6l-6 8l-10 -2l2 -6 l-2 -10l-6 2l-2 -4h-3h-4v-6l-8 -2l-14 -5l2 -10l-6 -10l-15 -13l-12 -20l-8 -12l-15 -7v-6l-6 -4l-12 -8l-5 -2l-4 -11l4 -20l2 -11l-6 -16v-25l-8 -2l-6 -12l4 -4l-12 -6l-2 -9l-5 -6l-14 12q-4 11 -12 35l-6 5l-7 14l-4 17l-2 10l-14 20q-9 35 -13 46l-2 18l-4 13l-20 -9 h-9l-20 15l6 6l-2 4l-17 12l-10 1l-6 10l-12 10l-25 -4l-23 -2l-20 -4q-6 1 -21 3t-21 3l-16 4l-6 17l-7 2l-12 -2l-14 -7l-17 3l-16 12l-13 4l-10 14l-10 19l-8 -4l-7 6l-6 -6h-8l4 -6l-2 -4q2 -4 5 -11.5t5 -11.5l7 -4l2 -6l10 -5v-6l-2 -4l2 -4l4 -4l2 -4l2 -4l-2 10l4 8 l4 2l4 -4v-8l-4 -8l2 -5h2v-4l11 2h22l29 29l4 6l2 -2l-2 -6l-2 -2l2 -12l6 -10l7 -5l10 -2l8 -2q8 -8 11 -14l6 -2v-4l-3 -6t-4 -7l-6 -6l-6 -10h-6l-2 -4l-2 -8l2 -9l-2 -2h-6l-9 -6l-2 -8l-4 -4h-10l-6 -4v-5l-8 -4l2 4l-9 -6h-8l-12 -4l-2 -6v-6l-15 -6l-24 -7l-13 -10 h-6h-4l-10 -6l-9 -2h-14h-4l-4 -4l-4 -2l-2 -4h-7l-6 -1l-10 1l-4 8v8l-2 4l-2 12l-3 5h3l-2 6l2 2v6l-2 6l-3 4l-2 5l-8 6l-8 18l-4 11l-10 10l-5 2l-10 14l-2 9l2 8l-8 16l-6 6l-7 4l-4 7l2 4l-4 8l-4 4l-4 11q-2 4 -14 22h-7l1 8l2 5l2 6v2l-4 -6l-3 -9l-4 -8h-6 q-2 2 -5 6t-5 6l-8 21l-2 -2l4 -16l8 -15l8 -23l4 -8l4 -8l11 -17l-4 -2v-10l16 -14l2 -4l4 -13l-4 -2l2 -16l4 -17q2 -2 6.5 -5t6.5 -5l8 -17l4 -14l8 -8l19 -15q4 -4 11 -12t11 -12l7 -3l4 -4v-6l-7 -2q1 -1 5 -4t6 -4l2 -6l6 -6h8l13 4l16 2l13 4h8l6 2h14l7 2l8 2l8 6h6 v-4v-8v-8l-4 -5l-4 -16q-14 -29 -17 -35l-14 -21q-9 -11 -31 -35l-16 -12l-21 -14l-14 -9l-17 -16l-4 -8l-4 -4l-10 -5l-4 -6h-5l-2 -10l-4 -6l-2 -9l-6 -4l-6 -16l2 -8l10 -6v-3l-4 -8v-4v-6l6 -8l6 -13l5 -4l2 -6v-12l2 -11l2 -20l2 -5l-4 -8l-9 -4l-8 -6q-6 -1 -16 -4 l-11 -4l-16 -11l-6 -2l-9 -8l-6 -2v-8l7 -8l4 -5v-4h2v-10v-6l4 -2l-2 -4l-6 -4q-2 -1 -7 -2t-9.5 -2.5t-8.5 -2.5l-6 -4l2 -4h4v-6l-2 -8v-8l-2 -3q-2 -1 -3.5 -2l-3 -2t-2.5 -2l-4 -4l-2 -4l-6 -6q-2 -1 -8.5 -6t-9.5 -7l-7 -4l-12 -2h-6v-2l-8 2l-5 -2l-14 4h-6l-4 2 l-9 -2h-10l-6 -2h-4l-6 4h-4l-4 3v-1l-1 1l-2 6l-6 6l2 2l-4 8q-12 10 -33 33l-12 10l-8 7l-5 10l-6 8l-10 17l-4 14l-4 6l-6 6l-9 9q-3 4 -8 11t-8 11l-13 13l-6 18v10l2 9v6l2 10l5 4l6 7l4 4v10l-2 8l-4 6q-2 3 -4.5 8t-4.5 7v2l3 4q-8 21 -9 23l-8 10v2q-2 4 -6 16 l-13 13l-14 16l-10 13l-8 16v4l2 4q4 10 4 19l-2 2l4 16l2 11l-6 12l-5 4l-2 8l-4 1v4l-14 -2l-4 2l-4 -2l-9 2l-8 10l-4 12l-8 11q-3 1 -9.5 2t-9.5 2h-10h-10l-17 -4l-6 -3l-10 -2l-9 7l-4 2l-8 4l-6 2l-12 2q-3 -1 -7.5 -2t-7.5 -2h-2h-2l-10 10l-8 13l-7 12l-6 12l-2 4 l-6 7l-4 10l-2 6v12l-4 9l-2 8l-1 2l-2 4v8v4l-2 3l-4 8l-2 2l-2 6v2l-2 4v15l2 6l-2 14l-2 8l4 2l2 3l2 6v8l4 6l4 13q1 8 1 22l2 6v7v10q1 2 2 6t2 6l4 2l4 6v5l6 8l6 8l4 2l3 8l2 7l6 8l6 2l10 12l6 4l7 -2l10 8l6 1l10 8v18l7 9l4 6l8 8l10 4l8 4q3 3 8.5 9.5t8.5 9.5 l6 -2l4 -7l10 -2l7 -6l4 -2l12 4h11l8 4l12 2q30 -5 37 -6l4 -4l11 4l12 -2l4 -4h8l13 4l8 -4l-2 -6l12 4v-2l-8 -6l-2 -6l4 -4l-6 -11l-10 -8v-8l6 -2l2 -7l4 -4l14 -8h6l9 -4l16 -10l4 -13l9 -4l16 -8l12 -10l7 2l8 6v12l6 6l10 5h9l18 -5l4 -6h4l4 -2l13 -4l2 -6l18 -2 q3 -1 14 -5.5t17 -7.5l11 3l6 4h12l9 -2l4 -7l4 4l10 -4l10 -2l7 4l4 3l4 6l4 10l2 4l6 12l8 9v10l4 6l-4 6l6 5h-8l-10 4l-10 -7h-19l-10 7l-13 2l-4 -6h-10l-12 8l-13 2l-6 14l-8 8l8 9l-6 8l16 12l19 -2l8 9l23 -3l16 7l15 2l22 -2l21 -11l17 -6l16 2l12 -2l15 6l2 6 l-11 17l-8 6l-8 2l-4 4l-15 11l-14 6l-8 8l10 2l12 10l-6 5l17 4v2l-11 -2h-10l-8 -2h-12l-11 -4v-7l6 -4h11l-4 -4l-13 -2l-18 -6l-4 2l4 6l-11 4l1 2l12 4l-4 4l-17 3v6h-12l-6 -6l-11 -9v-4l-6 -2l-4 2l-6 -16l-8 -4l-6 -9l2 -8v-6l10 -6l-2 -4h-15q-3 -2 -9 -4.5 t-9 -4.5l-2 5v2l-8 2l-5 2l-16 -2l6 -7l-6 -2h-6l-4 7l-2 -2v-7l4 -8l-6 -2l6 -8l6 -4l-2 -7l-11 5l1 -7h-7l2 -12h-8l-10 8l-2 11v10q-1 3 -4 8t-4 8v4v3l-5 6v6l3 10l2 4l-2 2l-1 4q-1 1 -6.5 4t-7.5 5l-6 6l-10 6l-5 12h2l-2 5l2 4l-6 4l-6 -6l-2 4l2 4h2l-8 4l-10 -4 l-2 -6l-2 -4l2 -7l8 -8l2 -12l10 -11l10 -2l1 -4l-3 -2q2 -1 5 -3.5t5.5 -4.5t4.5 -4l8 -8v-2l-4 -2l-4 8l-12 4l-7 -8l7 -6l-3 -5h-6l-10 -10h-6q0 2 2 4l4 8l4 2q-1 3 -2 7.5t-2 7.5h-2l-2 6l-6 4l-4 6l-7 2l-6 7l-8 10l-4 10l2 13l-6 2l-6 6h-5l-8 -4h-4l-12 -6l-17 8 h-16l-4 -8l-2 -7l-13 -6h-14l-2 -4l-13 -8l-8 -10v-7l-8 -4l-6 -8h-7l-12 -8q-8 2 -20 6l-7 -2l-6 -4h-4l-2 6v8l-8 4l-4 -2l-4 4h-3l5 9l2 8l-4 2v6l4 8l6 4l4 5l6 8l2 6v6l2 4l6 7v6l15 6l8 -6l12 -4l7 -5l8 -2l14 -4l8 6l13 23v17l-2 8l-10 8l4 10h12l12 -8l6 14l5 -8 l26 4l7 9q12 0 18 2l6 2l17 16l16 2l7 -2l4 2h8v-2l10 4v4l4 5v8l6 12l3 2l4 2h8l4 2l10 2l-4 -6l-8 -2v-4l4 -2l-4 -4l-2 2l-12 -8v-6l-1 -3l7 -4l-2 -4h10l8 2l8 -6l2 -4l7 2q3 1 14.5 3t16.5 3l10 -4v-4l10 -2l4 6l15 2l2 10l4 7l8 6l10 2l3 -10h8q1 3 4 8t4 8l-4 -2 l-4 4l2 6l14 2h11l10 -4h10l13 6l-7 11h-18l-17 -2h-16l-4 6l-7 4l5 10v9l8 6l12 6l25 10l6 2v4l-10 5l-15 -1l-12 -6l-2 -4q-20 -9 -39 -14l-13 -13l2 -8l5 -8l-13 -12l-10 -2l-12 -19l-9 -10l-12 2l-10 -7l-11 1l2 12v14l1 17l-1 8l-24 -10h-13l-8 8l4 12l13 25l12 6l25 4 l22 7q31 19 54 28q15 4 45 15l17 2l12 -2l15 6l14 -2h14l21 -10l-12 -2l6 -7l10 2l12 -8l21 -4l29 -14l6 -6v-7l-10 -6l-15 -2q-22 7 -37 10h-6l12 -8l-2 -16l11 -4l6 -3l2 5l-4 6l6 4l21 -8l8 2l-6 8l22 10h7l8 -4l6 8l-6 5l4 6l-2 12l23 -4l4 -6l-11 -2v-6l6 -3l13 2l2 5 q9 2 24.5 7.5t20.5 6.5h6l-8 -6h10l5 4h16l12 4l11 -6l8 8l-10 6l4 4l24 -2l11 -2l33 -10l4 6l-10 4l-2 2h-9v5l-8 8l-2 4l10 10v10l4 1h19l4 -5l-2 -8l6 -2l6 -6l5 -13l12 -6v-8l-10 -16h10l2 4l8 4v6l4 6l-8 6v7h-8h-2v10l-13 8l9 8l-5 7h3l6 -3l2 -10h8l-8 6l10 5l14 2 l15 -3l-12 7l-7 10l9 4l16 2l11 4l-7 2l2 7l5 2l6 6l12 4v2l12 4h5l4 8l8 2l-4 4v3l4 6h10l-2 -4l10 2l5 -4v4l10 4h12l6 -2l5 -4v-4l-1 -7v-4h5h8v4l10 -4l-2 2l2 4l10 4l5 -4l10 5l-10 6l6 2l2 2l8 -2l8 -4l4 -4l9 -3h6l-11 9h5l-2 6l4 2l2 4l2 2l-11 6l-6 4v1zM619 1171 l4 6l14 -4h21l-8 -10v-4l-4 -6l-7 6l-4 2zM1105 1546l-2 8l14 7l-8 2l15 8l-1 4q11 4 35 12l21 2l10 4l11 2l6 -4l-2 -4q-4 -1 -12.5 -3.5t-15 -4.5t-11.5 -4l-21 -6l-8 -9l-12 -10l4 -8l16 -8l-4 -2h-25l-2 4l-14 2l-2 6zM584 1449h10l8 -2l-8 -8l-14 -8l8 -4l-2 -15l4 -4 l-4 -14v-5l10 -4l-6 -8l-6 -2v-8l-11 -4l-12 4h-16l-3 2l-8 -4l-6 4l-8 -2l-2 4l20 8h7l-11 6v6l10 1v8l5 8l10 -4l6 6v8l-8 4v3l6 4v4l-8 -4l8 10v6l12 10l11 7l4 -2l10 -2zM551 1556h8l-2 9l8 -2l4 2l-4 6l10 4l5 -2l-2 -10l12 2l2 -5l12 1l6 -3l-8 -6l-2 -6l-14 -4h-25 l-4 4zM501 1400l11 10l6 12q12 3 24 9l5 -2l2 -9l-7 -6l-4 -8l-12 -8l-17 -4zM1097 396l-2 -6l-2 -4l-3 8l-4 -4l2 -8l-2 -6l-4 -2v-9q-23 -51 -27 -63l-8 -13l-12 -2l-12 -4q-5 2 -17 6l-4 6l-2 9l-4 8l-2 8l2 8l6 2v3l6 8l2 8l-2 6l-2 8l-2 9l6 6l2 8h8l7 2l6 2h6l8 6 l11 7l4 6l-2 6l6 -2l8 8v8l6 5l4 -5l4 -6l3 -8l2 -14zM1556 730l-2 -16l-6 -6l-12 -5l-5 11l-2 22l6 25l9 -8l6 -10zM1785 602l-4 9l-9 6l-2 8l-4 8l-2 9l-4 18l-8 10l-2 11l-4 8l-7 6l-4 12l-8 5l-10 14v8l6 2l16 2l7 -12l8 -8l4 -4l8 -11l9 2l6 -8l4 -10l6 -4l-4 -13l4 -4 h2v-10l2 -6l6 2l2 -8q-2 -7 -5 -20t-5 -19zM1847 603l-5 -9l-4 2l-6 -4l-6 -2h-6l-6 2l-4 -2l-3 -4h-12v6l-6 -2l8 15l10 4l3 -2h2v-4l12 4l2 6h10v-8l7 2zM1863 615l2 -6q-8 -8 -10 -9l-4 -2l4 7l2 2l2 6v-2zM1898 809l-2 -7l-4 -4v-6l-4 -8l-4 -15l2 -12l-2 -8l4 -9l-6 -6 v-8l-2 -12l-5 -13l-2 -14l-6 -23v4l-8 -10v8l-4 -2l-2 2l-10 -8v4l-3 -2l-6 -2l2 17l-2 2l-2 10v12l2 13l6 12l3 -2l6 6l2 14l4 3l8 8q1 3 5.5 14.5t6.5 16.5l5 12l4 13l2 14l2 2l2 -6v-6l4 -2zM1900 881l-4 -7l-2 -12l-6 -20l2 12l4 12l2 11l2 16zM1904 928l4 12v-6l-4 6 l-2 -6l-2 2v6v4l-2 1v-5l-4 5l-2 6l-2 14l2 -4q-1 6 -2 18.5t-2 18.5l2 2l4 -2v4v-4v-6l2 -10v-13l-2 -8v-12l2 -9h2l2 4l6 -4v-8l2 -2v-8zM1915 897l-2 -8v-10l-1 -5l-3 7q0 6 3 10v10l1 2v-10l2 18v-14zM1923 914h-6v-3l2 -8l-2 -6v10v7v6l-2 10l4 4l2 -4zM1148 1173l-4 4 l-2 -12h8l-4 -10l10 -4l-2 -13l2 -10l-2 -4l-22 -4l-19 2l-10 8l-13 2l-4 10v6l4 3l1 4l2 10l10 2l-4 4h-6l-5 10q-14 12 -22 23l2 8l-12 13l12 14l12 2l6 8l11 4l14 5l12 -4h11l2 -7l-2 -14l-11 2l-10 -2v-10l-12 2v-4l8 -3l6 -12l15 -4l2 -4l-2 -6v-4l4 -7v9l10 4l6 -9 l9 -8z" />
<glyph unicode="&#xf035;" horiz-adv-x="1536" d="M771 348v177h177q16 0 28 11.5t12 28.5v82q0 17 -12 29t-28 12h-177v176q0 17 -11.5 29t-28.5 12h-82q-17 0 -29 -12t-12 -29v-176h-176q-17 0 -29 -12t-12 -29v-82q0 -17 12 -28.5t29 -11.5h176v-177q0 -16 12 -28.5t29 -12.5h82q16 0 28 12t12 29zM1408 1085h-416 q-40 0 -68 28t-28 68v416h-768v-1536h1280v1024zM1024 1213h376q-10 29 -22 41l-313 313q-12 12 -41 22v-376zM1468 1345q28 -28 48 -76t20 -88v-1152q0 -40 -28 -68t-68 -28h-1344q-40 0 -68 28t-28 68v1600q0 40 28 68t68 28h896q40 0 88 -20t76 -48z" />
<glyph unicode="&#xf036;" horiz-adv-x="1536" d="M735 1147q4 0 7 -3q7 -4 4 -13l-58 -148v-6h8h122q130 0 223 -92.5t93 -223.5v-41q0 -130 -93 -223t-223 -93h-446v145h446q70 0 120 50t50 121v41q0 71 -50 120.5t-120 49.5h-126l54 -138q4 -9 -4 -14q-4 -2 -7 -2t-7 2l-290 224q-5 3 -5 9t5 9l290 223q3 3 7 3z M1024 1213h376q-10 29 -22 41l-313 313q-12 12 -41 22v-376zM128 61h1280v1024h-416q-40 0 -68 28t-28 68v416h-768v-1536zM992 1725q40 0 88 -20t76 -48l312 -312q28 -28 48 -76t20 -88v-1152q0 -40 -28 -68t-68 -28h-1344q-40 0 -68 28t-28 68v1600q0 40 28 68t68 28h896z " />
<glyph unicode="&#xf037;" horiz-adv-x="1536" d="M1024 1213h376q-10 29 -22 41l-313 313q-12 12 -41 22v-376zM128 61h1280v1024h-416q-40 0 -68 28t-28 68v416h-768v-1536zM992 1725q40 0 88 -20t76 -48l312 -312q28 -28 48 -76t20 -88v-1152q0 -40 -28 -68t-68 -28h-1344q-40 0 -68 28t-28 68v1600q0 40 28 68t68 28 h896zM896 768q14 0 27 -11l54 -54q11 -11 11 -27q0 -15 -11 -26l-287 -287l-54 -54q-11 -11 -27 -11t-27 11l-54 54l-143 143q-11 11 -11 27t11 27l54 54q11 11 27 11q14 0 27 -11l116 -117l260 260q11 11 27 11z" />
<glyph unicode="&#xf038;" horiz-adv-x="1536" d="M1440 1725q40 0 68 -28t28 -68v-1600q0 -40 -28 -68t-68 -28h-1344q-40 0 -68 28t-28 68v1600q0 40 28 68t68 28h465q10 0 16.5 -6.5t6.5 -16.5v-55q0 -10 7 -16.5t16 -6.5h322q9 0 16 6.5t7 16.5v55q0 10 6.5 16.5t16.5 6.5h465zM1408 61v1400h-1280v-1400h1280z M1029 811q57 -10 98 -49t62 -99t30 -123t9 -135q0 -79 -45 -134.5t-108 -55.5h-614q-63 0 -108 55.5t-45 134.5q0 72 9 135t30 123t62 99t98 49q104 -117 261 -117t261 117zM1044 1044q0 -115 -80.5 -196t-195.5 -81t-195.5 81t-80.5 196q0 114 80.5 195t195.5 81t195.5 -81 t80.5 -195z" />
</font>
</defs>
</svg>
